<svg width="8" height="13" viewBox="0 0 8 13" fill="none" xmlns="http://www.w3.org/2000/svg">
<path d="M3.22656 8.48438L3.21875 7.92969C3.19792 7.54427 3.23438 7.20573 3.32812 6.91406C3.42188 6.61719 3.58073 6.35156 3.80469 6.11719C4.03385 5.8776 4.32552 5.65104 4.67969 5.4375C5.0026 5.23958 5.25781 5.05469 5.44531 4.88281C5.63802 4.71094 5.77344 4.52865 5.85156 4.33594C5.9349 4.14323 5.97656 3.91927 5.97656 3.66406V3.64844C5.97656 3.3724 5.90885 3.13021 5.77344 2.92188C5.63802 2.70833 5.44531 2.53906 5.19531 2.41406C4.95052 2.28906 4.66146 2.22656 4.32812 2.22656C4 2.22656 3.71094 2.29167 3.46094 2.42188C3.21094 2.55208 3.01302 2.73698 2.86719 2.97656C2.72135 3.21094 2.64062 3.48698 2.625 3.80469L2.60938 3.8125L0.78125 3.82031V3.80469C0.807292 3.19531 0.960938 2.65104 1.24219 2.17188C1.52865 1.69271 1.9401 1.31771 2.47656 1.04688C3.01302 0.770833 3.66667 0.632812 4.4375 0.632812C5.15104 0.632812 5.77344 0.760417 6.30469 1.01562C6.84115 1.26562 7.25781 1.61198 7.55469 2.05469C7.85156 2.4974 8 3.00521 8 3.57812V3.59375C8 3.98958 7.9349 4.34896 7.80469 4.67188C7.67969 4.99479 7.49479 5.28646 7.25 5.54688C7.00521 5.80208 6.70573 6.03646 6.35156 6.25C6.00781 6.44792 5.73958 6.63281 5.54688 6.80469C5.35938 6.97656 5.22656 7.15885 5.14844 7.35156C5.07552 7.54427 5.03906 7.77083 5.03906 8.03125V8.48438H3.22656ZM4.21875 12.1953C3.82812 12.1953 3.51302 12.0859 3.27344 11.8672C3.03906 11.6432 2.92188 11.3438 2.92188 10.9688C2.92188 10.5938 3.03906 10.2969 3.27344 10.0781C3.51302 9.85417 3.82812 9.74219 4.21875 9.74219C4.61458 9.74219 4.92969 9.85417 5.16406 10.0781C5.39844 10.2969 5.51562 10.5938 5.51562 10.9688C5.51562 11.3438 5.39844 11.6432 5.16406 11.8672C4.92969 12.0859 4.61458 12.1953 4.21875 12.1953Z" fill="white" fill-opacity="0.8"/>
</svg>
