<svg width="20" height="20" viewBox="0 0 20 20" fill="none" xmlns="http://www.w3.org/2000/svg">
<path fill-rule="evenodd" clip-rule="evenodd" d="M10.9997 10.9998H17.0709C17.6239 10.9998 18.0708 10.5529 18.0708 9.99996C18.0708 9.44701 17.6239 9.00011 17.0709 9.00011L10.9997 9.00011V2.9289C10.9997 2.37594 10.5528 1.92905 9.99987 1.92905C9.44691 1.92905 9.00002 2.37594 9.00002 2.9289V9.00011L2.9288 9.00011C2.37585 9.00011 1.92896 9.44701 1.92896 9.99996C1.92896 10.2757 2.04068 10.5261 2.2217 10.7071C2.40272 10.8881 2.65303 10.9998 2.9288 10.9998H9.00002L9.00002 17.071C9.00002 17.3468 9.11175 17.5971 9.29276 17.7781C9.47378 17.9592 9.7241 18.0709 9.99987 18.0709C10.5528 18.0709 10.9997 17.624 10.9997 17.071V10.9998Z" fill="#1B1D20"/>
</svg>
