<svg width="25" height="24" viewBox="0 0 25 24" fill="none" xmlns="http://www.w3.org/2000/svg">
<path opacity="0.3" d="M8.88477 19C9.32239 20.5856 10.7752 21.75 12.5 21.75H16.5C18.571 21.75 20.25 20.0711 20.25 18V10C20.25 8.27525 19.0856 6.82245 17.5 6.38483V14C17.5 16.7614 15.2614 19 12.5 19H8.88477Z" fill="#858D9B"/>
<path d="M8.5 2.25C6.42893 2.25 4.75 3.92893 4.75 6V14C4.75 16.0711 6.42893 17.75 8.5 17.75H12.5C14.5711 17.75 16.25 16.0711 16.25 14V6C16.25 3.92893 14.5711 2.25 12.5 2.25H8.5Z" fill="#858D9B"/>
</svg>
