<svg width="24" height="24" viewBox="0 0 24 24" fill="none" xmlns="http://www.w3.org/2000/svg">
<path d="M20.2192 18.8966C20.2745 18.904 20.3298 18.9115 20.3851 18.9193L20.6628 18.9582C21.8721 19.1279 22.954 18.2062 22.954 17.0063V16.0906C22.954 15.2325 22.4048 14.467 21.582 14.1783C20.6315 13.8449 19.6502 13.6277 18.6595 13.527C19.6932 14.2743 20.3343 15.4844 20.3343 16.8047V17.9416C20.3343 18.2718 20.2943 18.5915 20.2192 18.8966Z" fill="#97BBFF"/>
<path d="M16.0295 12.3087C16.4414 12.4788 16.8939 12.5728 17.3688 12.5728C19.2792 12.5728 20.828 11.0515 20.828 9.17495C20.828 7.29837 19.2792 5.7771 17.3688 5.7771C17.3122 5.7771 17.2559 5.77843 17.2 5.78107C17.5474 6.52097 17.7416 7.3471 17.7416 8.21859C17.7416 9.8195 17.0864 11.2674 16.0295 12.3087Z" fill="#97BBFF"/>
<path d="M3.73474 18.8966C3.67944 18.904 3.62417 18.9115 3.56892 18.9193L3.29118 18.9582C2.08191 19.1279 1 18.2062 1 17.0063V16.0906C1 15.2325 1.5492 14.467 2.37194 14.1783C3.32249 13.8449 4.30382 13.6277 5.29444 13.527C4.26079 14.2743 3.61968 15.4844 3.61968 16.8047V17.9416C3.61968 18.2718 3.65964 18.5915 3.73474 18.8966Z" fill="#97BBFF"/>
<path d="M7.92446 12.3087C7.51253 12.4788 7.06003 12.5728 6.58517 12.5728C4.67473 12.5728 3.126 11.0515 3.126 9.17495C3.126 7.29837 4.67473 5.7771 6.58517 5.7771C6.64177 5.7771 6.69805 5.77843 6.75398 5.78107C6.40657 6.52097 6.21242 7.3471 6.21242 8.21859C6.21242 9.8195 6.8676 11.2674 7.92446 12.3087Z" fill="#97BBFF"/>
<path fill-rule="evenodd" clip-rule="evenodd" d="M6.86063 14.4305C10.1833 13.2438 13.8143 13.2438 17.137 14.4305C18.1404 14.7889 18.8101 15.7393 18.8101 16.8047V17.9416C18.8101 19.4313 17.4907 20.5757 16.016 20.365L15.6772 20.3166C13.2373 19.968 10.7603 19.968 8.32039 20.3166L7.98167 20.365C6.50693 20.5757 5.1875 19.4313 5.1875 17.9416V16.8047C5.1875 15.7393 5.85727 14.7889 6.86063 14.4305Z" fill="#0085FF"/>
<path fill-rule="evenodd" clip-rule="evenodd" d="M16.2174 8.21859C16.2174 5.88873 14.3287 4 11.9988 4C9.66899 4 7.78026 5.88873 7.78026 8.21859C7.78026 10.5484 9.66899 12.4372 11.9988 12.4372C14.3287 12.4372 16.2174 10.5484 16.2174 8.21859Z" fill="#0085FF"/>
</svg>
