<svg width="11" height="17" viewBox="0 0 11 17" fill="none" xmlns="http://www.w3.org/2000/svg">
<path d="M3.44303 10.9208L3.43221 10.1474C3.41056 9.63916 3.46467 9.18534 3.59454 8.78598C3.73163 8.37935 3.95169 8.01266 4.25472 7.68591C4.56496 7.35915 4.969 7.04692 5.46684 6.74922C5.91417 6.47329 6.2677 6.21552 6.52745 5.9759C6.78719 5.73628 6.97117 5.48214 7.07939 5.21348C7.19483 4.94481 7.25255 4.63258 7.25255 4.27679V4.255C7.25255 3.87016 7.15515 3.52888 6.96035 3.23118C6.77276 2.93347 6.50941 2.70111 6.1703 2.5341C5.8312 2.35983 5.43437 2.2727 4.97983 2.2727C4.51807 2.2727 4.11403 2.36347 3.7677 2.54499C3.4286 2.72652 3.15804 2.97703 2.95602 3.29653C2.76121 3.60876 2.64577 3.97545 2.6097 4.39659L2.59887 4.48373H0.0664062V4.3857C0.109696 3.56519 0.326147 2.82818 0.715757 2.17467C1.10537 1.52117 1.66814 1.00563 2.40407 0.628045C3.14721 0.243202 4.0527 0.0507812 5.12052 0.0507812C6.10897 0.0507812 6.97117 0.22868 7.7071 0.584478C8.45024 0.933014 9.02744 1.41588 9.4387 2.03308C9.85717 2.65028 10.0664 3.35825 10.0664 4.15698V4.17876C10.0664 4.73061 9.97622 5.23163 9.79584 5.68182C9.62268 6.13202 9.36294 6.53864 9.01662 6.9017C8.67752 7.2575 8.26265 7.58425 7.77203 7.88196C7.30306 8.15788 6.93509 8.41566 6.66814 8.65527C6.4084 8.89489 6.22441 9.14903 6.11619 9.4177C6.00796 9.6791 5.95385 9.99133 5.95385 10.3544V10.9208H3.44303ZM4.74173 16.0508C4.28719 16.0508 3.90479 15.9019 3.59454 15.6042C3.29151 15.2992 3.14 14.9253 3.14 14.4824C3.14 14.0322 3.29151 13.6582 3.59454 13.3605C3.90479 13.0628 4.28719 12.914 4.74173 12.914C5.20349 12.914 5.58949 13.0628 5.89974 13.3605C6.20998 13.6582 6.36511 14.0322 6.36511 14.4824C6.36511 14.9253 6.20998 15.2992 5.89974 15.6042C5.58949 15.9019 5.20349 16.0508 4.74173 16.0508Z" fill="white" fill-opacity="0.5"/>
</svg>
