<svg width="9" height="13" viewBox="0 0 9 13" fill="none" xmlns="http://www.w3.org/2000/svg">
<g opacity="0.8">
<path d="M2.75403 8.19057L2.74538 7.61058C2.72806 7.22937 2.77135 6.88901 2.87525 6.58948C2.98491 6.28451 3.16096 6.0095 3.40338 5.76443C3.65158 5.51937 3.97481 5.28519 4.37308 5.06191C4.73095 4.85497 5.01377 4.66164 5.22157 4.48193C5.42936 4.30221 5.57654 4.11161 5.66312 3.91011C5.75548 3.70861 5.80165 3.47444 5.80165 3.20759V3.19125C5.80165 2.90262 5.72373 2.64666 5.56789 2.42338C5.41781 2.2001 5.20714 2.02583 4.93585 1.90058C4.66457 1.76988 4.34711 1.70453 3.98347 1.70453C3.61406 1.70453 3.29083 1.7726 3.01377 1.90875C2.74249 2.04489 2.52604 2.23278 2.36442 2.4724C2.20858 2.70657 2.11623 2.98159 2.08737 3.29745L2.07871 3.3628H0.0527344V3.28928C0.0873664 2.67389 0.260527 2.12114 0.572215 1.63101C0.883903 1.14088 1.33412 0.754219 1.92286 0.471034C2.51738 0.182402 3.24177 0.0380859 4.09602 0.0380859C4.88679 0.0380859 5.57654 0.17151 6.16529 0.438358C6.75981 0.699761 7.22157 1.06191 7.55057 1.52481C7.88535 1.98771 8.05273 2.51869 8.05273 3.11773V3.13407C8.05273 3.54796 7.98058 3.92372 7.83628 4.26137C7.69776 4.59901 7.48996 4.90398 7.21291 5.17628C6.94162 5.44312 6.60973 5.68819 6.21724 5.91147C5.84206 6.11841 5.54768 6.31174 5.33412 6.49146C5.12633 6.67117 4.97914 6.86178 4.89256 7.06327C4.80598 7.25933 4.76269 7.4935 4.76269 7.76579V8.19057H2.75403ZM3.79299 12.0381C3.42936 12.0381 3.12344 11.9264 2.87525 11.7032C2.63282 11.4744 2.51161 11.194 2.51161 10.8618C2.51161 10.5241 2.63282 10.2437 2.87525 10.0204C3.12344 9.79711 3.42936 9.68547 3.79299 9.68547C4.1624 9.68547 4.4712 9.79711 4.7194 10.0204C4.9676 10.2437 5.0917 10.5241 5.0917 10.8618C5.0917 11.194 4.9676 11.4744 4.7194 11.7032C4.4712 11.9264 4.1624 12.0381 3.79299 12.0381Z" fill="#7A5A39"/>
</g>
</svg>
