<svg width="24" height="24" viewBox="0 0 24 24" fill="none" xmlns="http://www.w3.org/2000/svg">
<path fill-rule="evenodd" clip-rule="evenodd" d="M16.289 7.6867C15.9693 8.13702 15.345 8.24288 14.8947 7.92314C13.9645 7.26265 12.8363 6.94015 11.6975 7.00916C10.5588 7.07818 9.47783 7.53457 8.63417 8.30256C7.79051 9.07056 7.23486 10.104 7.05946 11.2313C6.88406 12.3586 7.09945 13.512 7.66989 14.5C8.24032 15.488 9.13149 16.2513 10.1955 16.663C11.2594 17.0748 12.4322 17.1103 13.5192 16.7636C14.6061 16.417 15.5418 15.7091 16.171 14.7574C16.8001 13.8057 17.0849 12.6674 16.978 11.5316C16.9263 10.9817 17.3301 10.494 17.8799 10.4423C18.4298 10.3905 18.9175 10.7944 18.9692 11.3442C19.1189 12.9344 18.7202 14.5279 17.8394 15.8603C16.9585 17.1927 15.6485 18.1838 14.1268 18.6691C12.6051 19.1544 10.9632 19.1047 9.47364 18.5282C7.98408 17.9518 6.73644 16.8832 5.93783 15.5C5.13923 14.1168 4.83767 12.502 5.08324 10.9238C5.3288 9.34558 6.1067 7.89879 7.28783 6.82359C8.46895 5.74839 9.98225 5.10945 11.5765 5.01283C13.1708 4.9162 14.7502 5.36771 16.0526 6.29239C16.5029 6.61213 16.6087 7.23638 16.289 7.6867Z" fill="white"/>
</svg>
