<svg width="16" height="16" viewBox="0 0 16 16" fill="none" xmlns="http://www.w3.org/2000/svg">
<path d="M15.0353 2.92602C15.1845 1.78498 14.2423 0.842809 13.1013 0.992042C11.5262 1.19804 8.82659 1.76543 7.08003 3.3853C6.54102 3.88523 6.04255 4.4856 5.59823 5.10414L4.36736 4.9283C3.97267 4.87191 3.57447 5.00465 3.29255 5.28656L1.17123 7.40788C0.433161 8.14596 0.854469 9.40987 1.88777 9.55749L3.81657 9.83303C3.90601 10.005 4.02231 10.1647 4.16284 10.3052L5.72208 11.8645C5.86262 12.005 6.02229 12.1213 6.19429 12.2107L6.46983 14.1395C6.61745 15.1728 7.88137 15.5941 8.61944 14.8561L10.7408 12.7347C11.0227 12.4528 11.1554 12.0546 11.099 11.6599L10.9232 10.4291C11.5417 9.98476 12.1421 9.48629 12.642 8.94728C14.2619 7.20072 14.8293 4.50107 15.0353 2.92602Z" fill="white"/>
<path d="M3.95328 12.0747L2.06766 13.9603M2.53906 10.6605L1.59625 11.6033M5.36749 13.4889L4.42468 14.4317" stroke="#97BBFF" stroke-width="1.5" stroke-linecap="round"/>
<path d="M9.13727 5.00366C8.61657 5.52436 8.61657 6.36858 9.13727 6.88928C9.65797 7.40998 10.5022 7.40998 11.0229 6.88928C11.5436 6.36858 11.5436 5.52436 11.0229 5.00366C10.5022 4.48296 9.65797 4.48296 9.13727 5.00366Z" fill="#97BBFF"/>
</svg>
