<svg width="16" height="16" viewBox="0 0 16 16" fill="none" xmlns="http://www.w3.org/2000/svg">
<path d="M12.4787 12.5979C12.5156 12.6028 12.5524 12.6078 12.5892 12.613L12.7744 12.639C13.5806 12.7521 14.3019 12.1376 14.3019 11.3377V10.7272C14.3019 10.1551 13.9357 9.6448 13.3872 9.45238C12.7535 9.23007 12.0993 9.08532 11.4389 9.01814C12.128 9.51635 12.5554 10.3231 12.5554 11.2033V11.9612C12.5554 12.1814 12.5288 12.3945 12.4787 12.5979Z" fill="#858D9B"/>
<path d="M9.68555 8.20599C9.96017 8.31937 10.2618 8.38203 10.5784 8.38203C11.852 8.38203 12.8845 7.36785 12.8845 6.11679C12.8845 4.86574 11.852 3.85156 10.5784 3.85156C10.5407 3.85156 10.5032 3.85245 10.4659 3.85421C10.6975 4.34748 10.8269 4.89823 10.8269 5.47922C10.8269 6.5465 10.3901 7.51176 9.68555 8.20599Z" fill="#858D9B"/>
<path fill-rule="evenodd" clip-rule="evenodd" d="M3.5744 9.62018C5.78953 8.82906 8.2102 8.82906 10.4253 9.62018C11.0942 9.85907 11.5407 10.4927 11.5407 11.203V11.9609C11.5407 12.9541 10.6611 13.7169 9.67796 13.5765L9.45215 13.5442C7.82555 13.3119 6.17418 13.3119 4.54758 13.5442L4.32177 13.5765C3.3386 13.7169 2.45898 12.954 2.45898 11.9609V11.203C2.45898 10.4927 2.9055 9.85907 3.5744 9.62018Z" fill="#858D9B"/>
<path fill-rule="evenodd" clip-rule="evenodd" d="M9.81227 5.47889C9.81227 3.92565 8.55312 2.6665 6.99988 2.6665C5.44664 2.6665 4.18749 3.92565 4.18749 5.47889C4.18749 7.03214 5.44664 8.29129 6.99988 8.29129C8.55312 8.29129 9.81227 7.03214 9.81227 5.47889Z" fill="#858D9B"/>
</svg>
