<svg width="17" height="16" viewBox="0 0 17 16" fill="none" xmlns="http://www.w3.org/2000/svg">
<path d="M5.9163 4.49196L7.90502 0.514521C8.12999 0.0555854 8.67891 -0.133388 9.13785 0.100579C9.31782 0.190566 9.4618 0.343545 9.55179 0.52352L11.4235 4.35698C11.5765 4.66294 11.8735 4.87891 12.2154 4.9239L16.1389 5.39184C16.6698 5.46383 17.0567 5.94976 16.9937 6.48968C16.9667 6.70565 16.8678 6.91262 16.7058 7.0746L13.6012 10.1522C13.4752 10.2692 13.4212 10.4491 13.4392 10.6291L13.9522 14.7775C14.0332 15.3714 13.6102 15.9204 13.0253 15.9923C12.8003 16.0193 12.5754 15.9743 12.3774 15.8664L9.10185 14.0666C8.86788 13.9406 8.57992 13.9316 8.33696 14.0576L4.94443 15.8124C4.4675 16.0553 3.88258 15.8664 3.63962 15.3804C3.54063 15.2005 3.51363 14.9935 3.54063 14.7955L3.81059 12.8878C3.94557 11.9519 4.52149 11.151 5.34938 10.7191L9.11985 8.78436C9.21883 8.73037 9.25483 8.60439 9.20984 8.5054C9.16484 8.42441 9.08385 8.37942 8.99387 8.39741L4.38651 9.06332C3.68461 9.16231 2.96471 8.96433 2.41579 8.5054L0.877005 7.24558C0.436067 6.88563 0.373076 6.23772 0.724027 5.78778C0.895003 5.58981 1.12897 5.45483 1.38993 5.41883L5.33138 4.9059C5.58334 4.87891 5.79931 4.71693 5.9163 4.49196Z" fill="white"/>
<g filter="url(#filter0_i_547_2552)">
<path d="M5.9163 4.49196L7.90502 0.514521C8.12999 0.0555854 8.67891 -0.133388 9.13785 0.100579C9.31782 0.190566 9.4618 0.343545 9.55179 0.52352L11.4235 4.35698C11.5765 4.66294 11.8735 4.87891 12.2154 4.9239L16.1389 5.39184C16.6698 5.46383 17.0567 5.94976 16.9937 6.48968C16.9667 6.70565 16.8678 6.91262 16.7058 7.0746L13.6012 10.1522C13.4752 10.2692 13.4212 10.4491 13.4392 10.6291L13.9522 14.7775C14.0332 15.3714 13.6102 15.9204 13.0253 15.9923C12.8003 16.0193 12.5754 15.9743 12.3774 15.8664L9.10185 14.0666C8.86788 13.9406 8.57992 13.9316 8.33696 14.0576L4.94443 15.8124C4.4675 16.0553 3.88258 15.8664 3.63962 15.3804C3.54063 15.2005 3.51363 14.9935 3.54063 14.7955L3.81059 12.8878C3.94557 11.9519 4.52149 11.151 5.34938 10.7191L9.11985 8.78436C9.21883 8.73037 9.25483 8.60439 9.20984 8.5054C9.16484 8.42441 9.08385 8.37942 8.99387 8.39741L4.38651 9.06332C3.68461 9.16231 2.96471 8.96433 2.41579 8.5054L0.877005 7.24558C0.436067 6.88563 0.373076 6.23772 0.724027 5.78778C0.895003 5.58981 1.12897 5.45483 1.38993 5.41883L5.33138 4.9059C5.58334 4.87891 5.79931 4.71693 5.9163 4.49196Z" fill="white"/>
</g>
<path d="M5.9163 4.49196L7.90502 0.514521C8.12999 0.0555854 8.67891 -0.133388 9.13785 0.100579C9.31782 0.190566 9.4618 0.343545 9.55179 0.52352L11.4235 4.35698C11.5765 4.66294 11.8735 4.87891 12.2154 4.9239L16.1389 5.39184C16.6698 5.46383 17.0567 5.94976 16.9937 6.48968C16.9667 6.70565 16.8678 6.91262 16.7058 7.0746L13.6012 10.1522C13.4752 10.2692 13.4212 10.4491 13.4392 10.6291L13.9522 14.7775C14.0332 15.3714 13.6102 15.9204 13.0253 15.9923C12.8003 16.0193 12.5754 15.9743 12.3774 15.8664L9.10185 14.0666C8.86788 13.9406 8.57992 13.9316 8.33696 14.0576L4.94443 15.8124C4.4675 16.0553 3.88258 15.8664 3.63962 15.3804C3.54063 15.2005 3.51363 14.9935 3.54063 14.7955L3.81059 12.8878C3.94557 11.9519 4.52149 11.151 5.34938 10.7191L9.11985 8.78436C9.21883 8.73037 9.25483 8.60439 9.20984 8.5054C9.16484 8.42441 9.08385 8.37942 8.99387 8.39741L4.38651 9.06332C3.68461 9.16231 2.96471 8.96433 2.41579 8.5054L0.877005 7.24558C0.436067 6.88563 0.373076 6.23772 0.724027 5.78778C0.895003 5.58981 1.12897 5.45483 1.38993 5.41883L5.33138 4.9059C5.58334 4.87891 5.79931 4.71693 5.9163 4.49196Z" fill="white"/>
<defs>
<filter id="filter0_i_547_2552" x="0.498047" y="0" width="17.502" height="17" filterUnits="userSpaceOnUse" color-interpolation-filters="sRGB">
<feFlood flood-opacity="0" result="BackgroundImageFix"/>
<feBlend mode="normal" in="SourceGraphic" in2="BackgroundImageFix" result="shape"/>
<feColorMatrix in="SourceAlpha" type="matrix" values="0 0 0 0 0 0 0 0 0 0 0 0 0 0 0 0 0 0 127 0" result="hardAlpha"/>
<feOffset dx="1" dy="1"/>
<feGaussianBlur stdDeviation="2"/>
<feComposite in2="hardAlpha" operator="arithmetic" k2="-1" k3="1"/>
<feColorMatrix type="matrix" values="0 0 0 0 1 0 0 0 0 1 0 0 0 0 1 0 0 0 0.657 0"/>
<feBlend mode="normal" in2="shape" result="effect1_innerShadow_547_2552"/>
</filter>
</defs>
</svg>
