<svg width="14" height="14" viewBox="0 0 14 14" fill="none" xmlns="http://www.w3.org/2000/svg">
<path fill-rule="evenodd" clip-rule="evenodd" d="M11.289 2.6867C10.9693 3.13702 10.345 3.24288 9.89469 2.92314C8.96445 2.26265 7.83632 1.94015 6.69754 2.00916C5.55876 2.07818 4.47783 2.53457 3.63417 3.30256C2.79051 4.07056 2.23486 5.10398 2.05946 6.23129C1.88406 7.35859 2.09945 8.51198 2.66989 9.50001C3.24032 10.488 4.13149 11.2513 5.19546 11.663C6.25944 12.0748 7.43223 12.1103 8.51917 11.7636C9.6061 11.417 10.5418 10.7091 11.171 9.75738C11.8001 8.80568 12.0849 7.66743 11.978 6.53158C11.9263 5.98172 12.3301 5.49403 12.8799 5.44229C13.4298 5.39055 13.9175 5.79435 13.9692 6.34421C14.1189 7.9344 13.7202 9.52794 12.8394 10.8603C11.9585 12.1927 10.6485 13.1838 9.12683 13.6691C7.60512 14.1544 5.96321 14.1047 4.47364 13.5282C2.98408 12.9518 1.73644 11.8832 0.937834 10.5C0.139226 9.11678 -0.162325 7.50203 0.0832368 5.9238C0.328798 4.34558 1.1067 2.89879 2.28783 1.82359C3.46895 0.748391 4.98225 0.109451 6.57655 0.0128265C8.17084 -0.0837976 9.75023 0.367706 11.0526 1.29239C11.5029 1.61213 11.6087 2.23638 11.289 2.6867Z" fill="white"/>
</svg>
