<svg width="32" height="32" viewBox="0 0 32 32" fill="none" xmlns="http://www.w3.org/2000/svg">
<path fill-rule="evenodd" clip-rule="evenodd" d="M3.06445 10.3333C3.55446 6.5716 6.77123 3.66663 10.6665 3.66663H21.3332C25.2284 3.66663 28.4452 6.5716 28.9352 10.3333H3.06445ZM21.9998 1.66663C21.4475 1.66663 20.9998 2.11434 20.9998 2.66663V6.66663C20.9998 7.21891 21.4475 7.66663 21.9998 7.66663C22.5521 7.66663 22.9998 7.21891 22.9998 6.66663V2.66663C22.9998 2.11434 22.5521 1.66663 21.9998 1.66663ZM9.99983 1.66663C9.44754 1.66663 8.99983 2.11434 8.99983 2.66663V6.66663C8.99983 7.21891 9.44754 7.66663 9.99983 7.66663C10.5521 7.66663 10.9998 7.21891 10.9998 6.66663V2.66663C10.9998 2.11434 10.5521 1.66663 9.99983 1.66663Z" fill="#1B1D20"/>
<path opacity="0.3" fill-rule="evenodd" clip-rule="evenodd" d="M3 12.3333V22C3 26.2342 6.43248 29.6666 10.6667 29.6666H21.3333C25.5675 29.6666 29 26.2342 29 22V12.3333H3ZM8.66667 17.6666C8.11438 17.6666 7.66667 17.2189 7.66667 16.6666C7.66667 16.1144 8.11438 15.6666 8.66667 15.6666H10C10.5523 15.6666 11 16.1144 11 16.6666C11 17.2189 10.5523 17.6666 10 17.6666H8.66667ZM14.3333 16.6666C14.3333 17.2189 14.781 17.6666 15.3333 17.6666H16.6667C17.219 17.6666 17.6667 17.2189 17.6667 16.6666C17.6667 16.1144 17.219 15.6666 16.6667 15.6666H15.3333C14.781 15.6666 14.3333 16.1144 14.3333 16.6666ZM21 16.6666C21 17.2189 21.4477 17.6666 22 17.6666H23.3333C23.8856 17.6666 24.3333 17.2189 24.3333 16.6666C24.3333 16.1144 23.8856 15.6666 23.3333 15.6666H22C21.4477 15.6666 21 16.1144 21 16.6666ZM7.66667 22C7.66667 22.5523 8.11438 23 8.66667 23H10C10.5523 23 11 22.5523 11 22C11 21.4477 10.5523 21 10 21H8.66667C8.11438 21 7.66667 21.4477 7.66667 22ZM14.3333 22C14.3333 22.5523 14.781 23 15.3333 23H16.6667C17.219 23 17.6667 22.5523 17.6667 22C17.6667 21.4477 17.219 21 16.6667 21H15.3333C14.781 21 14.3333 21.4477 14.3333 22ZM21 22C21 22.5523 21.4477 23 22 23H23.3333C23.8856 23 24.3333 22.5523 24.3333 22C24.3333 21.4477 23.8856 21 23.3333 21H22C21.4477 21 21 21.4477 21 22Z" fill="#1B1D20"/>
</svg>
