<svg width="24" height="24" viewBox="0 0 24 24" fill="none" xmlns="http://www.w3.org/2000/svg">
<path d="M3.19681 13.1906C2.35621 11.7744 2.06157 10.1 2.36823 8.48192C2.6749 6.86382 3.56176 5.41334 4.86226 4.40291C6.16277 3.39247 7.78743 2.89159 9.43112 2.99435C11.0748 3.0971 12.6245 3.79642 13.789 4.96095C14.9535 6.12549 15.6528 7.67513 15.7556 9.31882C15.8584 10.9625 15.3575 12.5872 14.347 13.8877C13.3366 15.1882 11.8861 16.0751 10.268 16.3817C8.64992 16.6884 6.97553 16.3937 5.55931 15.5531L3.22494 16.2188C3.12875 16.2458 3.02711 16.2467 2.93044 16.2215C2.83378 16.1962 2.74559 16.1456 2.67494 16.075C2.6043 16.0044 2.55374 15.9162 2.52847 15.8195C2.50321 15.7228 2.50414 15.6212 2.53119 15.525L3.19681 13.1906Z" stroke="#1B1D20" stroke-width="2" stroke-linecap="round" stroke-linejoin="round"/>
<path d="M8.63477 16.4906C8.96518 17.4327 9.50072 18.2896 10.2027 18.9994C10.9047 19.7092 11.7556 20.2543 12.6939 20.5951C13.6322 20.936 14.6345 21.0642 15.6284 20.9705C16.6223 20.8768 17.583 20.5634 18.441 20.0531V20.0531L20.7754 20.7187C20.8716 20.7458 20.9732 20.7467 21.0699 20.7215C21.1665 20.6962 21.2547 20.6456 21.3254 20.575C21.396 20.5043 21.4466 20.4162 21.4719 20.3195C21.4971 20.2228 21.4962 20.1212 21.4691 20.025L20.8035 17.6906C21.3978 16.6931 21.7243 15.5591 21.7514 14.3983C21.7786 13.2375 21.5054 12.0894 20.9584 11.0653C20.4115 10.0411 19.6092 9.17557 18.6294 8.55257C17.6496 7.92958 16.5255 7.57024 15.366 7.50937" stroke="#1B1D20" stroke-width="2" stroke-linecap="round" stroke-linejoin="round"/>
</svg>
