<svg width="24" height="24" viewBox="0 0 24 24" fill="none" xmlns="http://www.w3.org/2000/svg">
<path fill-rule="evenodd" clip-rule="evenodd" d="M18.5404 5.45928C18.9309 5.8498 18.9309 6.48296 18.5404 6.87349L13.4139 12L18.5404 17.1265C18.9309 17.5171 18.9309 18.1502 18.5404 18.5408C18.1499 18.9313 17.5167 18.9313 17.1262 18.5408L11.9996 13.4142L6.87312 18.5408C6.4826 18.9313 5.84943 18.9313 5.45891 18.5408C5.06838 18.1502 5.06839 17.5171 5.45891 17.1265L10.5854 12L5.45891 6.87349C5.06838 6.48296 5.06838 5.8498 5.45891 5.45928C5.84943 5.06875 6.4826 5.06875 6.87312 5.45928L11.9996 10.5858L17.1262 5.45928C17.5167 5.06875 18.1499 5.06875 18.5404 5.45928Z" fill="#1B1D20"/>
</svg>
