<svg width="20" height="20" viewBox="0 0 20 20" fill="none" xmlns="http://www.w3.org/2000/svg">
<path fill-rule="evenodd" clip-rule="evenodd" d="M18 10.5C18 12.4891 17.2098 14.3968 15.8033 15.8033C14.3968 17.2098 12.4891 18 10.5 18C8.51088 18 6.60322 17.2098 5.1967 15.8033C3.79018 14.3968 3 12.4891 3 10.5C3 8.51088 3.79018 6.60322 5.1967 5.1967C6.60322 3.79018 8.51088 3 10.5 3C12.4891 3 14.3968 3.79018 15.8033 5.1967C17.2098 6.60322 18 8.51088 18 10.5ZM11.4375 6.75C11.4375 6.99864 11.3387 7.2371 11.1629 7.41291C10.9871 7.58873 10.7486 7.6875 10.5 7.6875C10.2514 7.6875 10.0129 7.58873 9.83709 7.41291C9.66127 7.2371 9.5625 6.99864 9.5625 6.75C9.5625 6.50136 9.66127 6.2629 9.83709 6.08709C10.0129 5.91127 10.2514 5.8125 10.5 5.8125C10.7486 5.8125 10.9871 5.91127 11.1629 6.08709C11.3387 6.2629 11.4375 6.50136 11.4375 6.75ZM9.5625 9.5625C9.31386 9.5625 9.0754 9.66127 8.89959 9.83709C8.72377 10.0129 8.625 10.2514 8.625 10.5C8.625 10.7486 8.72377 10.9871 8.89959 11.1629C9.0754 11.3387 9.31386 11.4375 9.5625 11.4375V14.25C9.5625 14.4986 9.66127 14.7371 9.83709 14.9129C10.0129 15.0887 10.2514 15.1875 10.5 15.1875H11.4375C11.6861 15.1875 11.9246 15.0887 12.1004 14.9129C12.2762 14.7371 12.375 14.4986 12.375 14.25C12.375 14.0014 12.2762 13.7629 12.1004 13.5871C11.9246 13.4113 11.6861 13.3125 11.4375 13.3125V10.5C11.4375 10.2514 11.3387 10.0129 11.1629 9.83709C10.9871 9.66127 10.7486 9.5625 10.5 9.5625H9.5625Z" fill="#C0C4CB"/>
</svg>
