<svg width="24" height="24" viewBox="0 0 24 24" fill="none" xmlns="http://www.w3.org/2000/svg">
<path d="M6.375 20.25C7.82475 20.25 9 19.0747 9 17.625C9 16.1753 7.82475 15 6.375 15C4.92525 15 3.75 16.1753 3.75 17.625C3.75 19.0747 4.92525 20.25 6.375 20.25Z" fill="#97BBFF"/>
<path fill-rule="evenodd" clip-rule="evenodd" d="M6.37507 15.75C5.33953 15.75 4.50007 16.5895 4.50007 17.625C4.50007 18.6605 5.33953 19.5 6.37507 19.5C7.4106 19.5 8.25007 18.6605 8.25007 17.625C8.25007 16.5895 7.4106 15.75 6.37507 15.75ZM3.00007 17.625C3.00007 15.761 4.51111 14.25 6.37507 14.25C8.23903 14.25 9.75007 15.761 9.75007 17.625C9.75007 19.489 8.23903 21 6.37507 21C4.51111 21 3.00007 19.489 3.00007 17.625Z" fill="#0085FF"/>
<path fill-rule="evenodd" clip-rule="evenodd" d="M3.21967 6.21967C3.51256 5.92678 3.98744 5.92678 4.28033 6.21967L5.625 7.56434L6.96967 6.21967C7.26256 5.92678 7.73744 5.92678 8.03033 6.21967C8.32322 6.51256 8.32322 6.98744 8.03033 7.28033L6.68566 8.625L8.03033 9.96967C8.32322 10.2626 8.32322 10.7374 8.03033 11.0303C7.73744 11.3232 7.26256 11.3232 6.96967 11.0303L5.625 9.68566L4.28033 11.0303C3.98744 11.3232 3.51256 11.3232 3.21967 11.0303C2.92678 10.7374 2.92678 10.2626 3.21967 9.96967L4.56434 8.625L3.21967 7.28033C2.92678 6.98744 2.92678 6.51256 3.21967 6.21967Z" fill="#0085FF"/>
<path fill-rule="evenodd" clip-rule="evenodd" d="M15.9697 15.2197C16.2626 14.9268 16.7374 14.9268 17.0303 15.2197L18.375 16.5643L19.7197 15.2197C20.0126 14.9268 20.4874 14.9268 20.7803 15.2197C21.0732 15.5126 21.0732 15.9874 20.7803 16.2803L19.4357 17.625L20.7803 18.9697C21.0732 19.2626 21.0732 19.7374 20.7803 20.0303C20.4874 20.3232 20.0126 20.3232 19.7197 20.0303L18.375 18.6857L17.0303 20.0303C16.7374 20.3232 16.2626 20.3232 15.9697 20.0303C15.6768 19.7374 15.6768 19.2626 15.9697 18.9697L17.3143 17.625L15.9697 16.2803C15.6768 15.9874 15.6768 15.5126 15.9697 15.2197Z" fill="#0085FF"/>
<path fill-rule="evenodd" clip-rule="evenodd" d="M12.2197 3.21967C12.5126 2.92678 12.9875 2.92678 13.2804 3.21967L14.7804 4.71967C16.8681 6.80735 17.1181 9.18531 16.3553 11.1468C15.6172 13.0448 13.9346 14.5394 12.182 14.9776C11.7801 15.0781 11.3729 14.8337 11.2725 14.4319C11.172 14.0301 11.4163 13.6229 11.8182 13.5224C13.0655 13.2106 14.3829 12.0802 14.9573 10.6032C15.507 9.18969 15.3821 7.44265 13.7197 5.78033L12.2197 4.28033C11.9268 3.98744 11.9268 3.51256 12.2197 3.21967Z" fill="#0085FF"/>
<path fill-rule="evenodd" clip-rule="evenodd" d="M12.0001 3.75C12.0001 3.33579 12.3359 3 12.7501 3H16.5001C16.9143 3 17.2501 3.33579 17.2501 3.75C17.2501 4.16421 16.9143 4.5 16.5001 4.5H13.5001V7.5C13.5001 7.91421 13.1643 8.25 12.7501 8.25C12.3359 8.25 12.0001 7.91421 12.0001 7.5V3.75Z" fill="#0085FF"/>
</svg>
