<svg width="24" height="24" viewBox="0 0 24 24" fill="none" xmlns="http://www.w3.org/2000/svg">
<path fill-rule="evenodd" clip-rule="evenodd" d="M8.99996 0.25C9.41418 0.25 9.74996 0.585786 9.74996 1V2C9.74996 2.41421 10.0857 2.75 10.5 2.75C11.7426 2.75 12.75 3.75736 12.75 5V5.5C12.75 5.91421 12.4142 6.25 12 6.25C11.5857 6.25 11.25 5.91421 11.25 5.5V5C11.25 4.58579 10.9142 4.25 10.5 4.25C9.25732 4.25 8.24996 3.24264 8.24996 2V1C8.24996 0.585786 8.58575 0.25 8.99996 0.25Z" fill="#0085FF"/>
<path d="M6.99994 5.25C3.8243 5.25 1.24994 7.82436 1.24994 11V15C1.24994 18.1756 3.8243 20.75 6.99994 20.75H16.9999C20.1756 20.75 22.7499 18.1756 22.7499 15V11C22.7499 7.82436 20.1756 5.25 16.9999 5.25H6.99994Z" fill="#0085FF"/>
<path d="M19 11.5C19 12.0523 18.5522 12.5 18 12.5C17.4477 12.5 17 12.0523 17 11.5C17 10.9477 17.4477 10.5 18 10.5C18.5522 10.5 19 10.9477 19 11.5Z" fill="#C8DBFF"/>
<path d="M17 14.5C17 15.0523 16.5522 15.5 16 15.5C15.4477 15.5 15 15.0523 15 14.5C15 13.9477 15.4477 13.5 16 13.5C16.5522 13.5 17 13.9477 17 14.5Z" fill="#C8DBFF"/>
<path d="M8.74994 11C8.74994 10.5858 8.41415 10.25 7.99994 10.25C7.58573 10.25 7.24994 10.5858 7.24994 11V12.25H5.99994C5.58573 12.25 5.24994 12.5858 5.24994 13C5.24994 13.4142 5.58573 13.75 5.99994 13.75H7.24994V15C7.24994 15.4142 7.58573 15.75 7.99994 15.75C8.41415 15.75 8.74994 15.4142 8.74994 15V13.75H9.99994C10.4142 13.75 10.7499 13.4142 10.7499 13C10.7499 12.5858 10.4142 12.25 9.99994 12.25H8.74994V11Z" fill="#C8DBFF"/>
</svg>
