<svg width="24" height="24" viewBox="0 0 24 24" fill="none" xmlns="http://www.w3.org/2000/svg">
<path d="M2 5C2 3.34315 3.34315 2 5 2H9C10.6569 2 12 3.34315 12 5V19C12 20.6569 10.6569 22 9 22H5C3.34315 22 2 20.6569 2 19V5Z" fill="#0085FF"/>
<path d="M6.78106 8.01958C6.95852 7.9877 7.14091 7.99482 7.31526 8.04042C7.48961 8.08603 7.65163 8.16901 7.7898 8.28344C7.92796 8.39788 8.03887 8.54097 8.11462 8.70253C8.19038 8.86408 8.22912 9.04013 8.2281 9.21814C8.22785 9.26145 8.22524 9.30462 8.22033 9.34747H9.45455C9.59921 9.34747 9.73795 9.40418 9.84024 9.50514C9.94253 9.6061 10 9.74303 10 9.8858V11.3225C10 11.4149 9.95198 11.5008 9.8728 11.5501C9.79362 11.5994 9.69435 11.6052 9.60985 11.5654C9.5036 11.5154 9.38584 11.494 9.2685 11.5033L9.26657 11.5035C9.16664 11.5107 9.06955 11.5396 8.98222 11.5881C8.89488 11.6366 8.81945 11.7035 8.7613 11.784C8.70314 11.8646 8.66368 11.9568 8.64574 12.0541C8.62779 12.1514 8.6318 12.2514 8.65747 12.347C8.68315 12.4426 8.72985 12.5314 8.79427 12.6072C8.85869 12.6829 8.93923 12.7437 9.03017 12.7853C9.12111 12.8268 9.22021 12.848 9.32041 12.8475C9.42062 12.8469 9.51946 12.8246 9.60992 12.782C9.69442 12.7422 9.79367 12.748 9.87283 12.7974C9.95199 12.8467 10 12.9326 10 13.025V14.4617C10 14.6044 9.94253 14.7414 9.84024 14.8423C9.73795 14.9433 9.59921 15 9.45455 15H4.54545C4.40079 15 4.26205 14.9433 4.15976 14.8423C4.05747 14.7414 4 14.6044 4 14.4617V12.0541L4 9.8858C4 9.74303 4.05747 9.6061 4.15976 9.50514C4.26205 9.40418 4.40079 9.34747 4.54545 9.34747H5.78034C5.77203 9.27273 5.77083 9.1971 5.77694 9.12156C5.79027 8.94436 5.84295 8.77221 5.93123 8.61733C6.01968 8.46219 6.14168 8.32819 6.28857 8.22487C6.43545 8.12155 6.60361 8.05146 6.78106 8.01958Z" fill="#D1DDF5"/>
<path d="M13.5 15.6597C13.5 15.9965 13.8908 16.1826 14.1522 15.9702L20.0347 11.1918C21.2332 10.0251 21.2461 8.10359 20.0634 6.92086L17.2219 4.07936C16.4882 3.34566 15.4672 3.07049 14.5181 3.25743C13.8451 3.39001 13.5 4.0786 13.5 4.76463V15.6597Z" fill="#97BBFF"/>
<path d="M13.8695 18.1323C13.6357 18.3222 13.5 18.6073 13.5 18.9085V21C13.5 21.5523 13.9477 22 14.5 22H19C20.6569 22 22 20.6569 22 19V14.2026C22 13.4249 21.597 12.7414 20.9884 12.3495L13.8695 18.1323Z" fill="#97BBFF"/>
</svg>
