<svg width="56" height="56" viewBox="0 0 56 56" fill="none" xmlns="http://www.w3.org/2000/svg">
<rect width="56" height="56" rx="28" fill="white"/>
<path d="M23.1444 28.3937L30.2694 19.7688L36.2507 19.75L36.2319 25.7313L27.6069 32.8563" fill="#C0C4CB"/>
<path fill-rule="evenodd" clip-rule="evenodd" d="M36.9578 19.0429C37.1461 19.2312 37.2515 19.4868 37.2507 19.7531L37.2319 25.7344C37.231 26.0316 37.0979 26.3129 36.8688 26.5022L29.0917 32.9268L29.6712 33.5063C29.835 33.6685 29.9652 33.8615 30.0543 34.0741C30.1439 34.2882 30.19 34.5179 30.19 34.75C30.19 34.9821 30.1439 35.2118 30.0543 35.4259C29.9652 35.6385 29.8351 35.8314 29.6713 35.9936L28.4941 37.1707C28.332 37.3345 28.1391 37.4646 27.9265 37.5536C27.7125 37.6432 27.4827 37.6894 27.2507 37.6894C27.0186 37.6894 26.7888 37.6432 26.5748 37.5536C26.3622 37.4646 26.1693 37.3344 26.0071 37.1707L24.2319 35.3955L21.6015 38.0259L21.6007 38.0267C21.2726 38.354 20.8281 38.5378 20.3647 38.5378C19.9013 38.5378 19.4569 38.354 19.1288 38.0267L19.1279 38.0259L17.9748 36.8727L17.974 36.8719C17.6467 36.5438 17.4629 36.0993 17.4629 35.6359C17.4629 35.1725 17.6467 34.7281 17.974 34.4L20.6052 31.7687L18.8301 29.9936C18.6663 29.8314 18.5361 29.6385 18.4471 29.4259C18.3575 29.2118 18.3113 28.9821 18.3113 28.75C18.3113 28.5179 18.3575 28.2882 18.4471 28.0741C18.5361 27.8615 18.6663 27.6685 18.8301 27.5064L20.0071 26.3294C20.1692 26.1656 20.3622 26.0354 20.5748 25.9464C20.7889 25.8568 21.0186 25.8106 21.2507 25.8106C21.4827 25.8106 21.7125 25.8568 21.9265 25.9464C22.1392 26.0355 22.3322 26.1656 22.4943 26.3295L23.0739 26.909L29.4985 19.1319C29.6877 18.9028 29.9691 18.7697 30.2663 18.7688L36.2475 18.75C36.5138 18.7492 36.7695 18.8546 36.9578 19.0429ZM24.4945 28.3296L27.6711 31.5062L35.2334 25.259L35.2475 20.7531L30.7416 20.7673L24.4945 28.3296Z" fill="#858D9B"/>
</svg>
