<svg width="16" height="16" viewBox="0 0 16 16" fill="none" xmlns="http://www.w3.org/2000/svg">
<path fill-rule="evenodd" clip-rule="evenodd" d="M12.289 3.6867C11.9693 4.13702 11.345 4.24288 10.8947 3.92314C9.96445 3.26265 8.83632 2.94015 7.69754 3.00916C6.55876 3.07818 5.47783 3.53457 4.63417 4.30256C3.79051 5.07056 3.23486 6.10398 3.05946 7.23129C2.88406 8.35859 3.09945 9.51198 3.66989 10.5C4.24032 11.488 5.13149 12.2513 6.19546 12.663C7.25944 13.0748 8.43223 13.1103 9.51917 12.7636C10.6061 12.417 11.5418 11.7091 12.171 10.7574C12.8001 9.80568 13.0849 8.66743 12.978 7.53158C12.9263 6.98172 13.3301 6.49403 13.8799 6.44229C14.4298 6.39055 14.9175 6.79435 14.9692 7.34421C15.1189 8.9344 14.7202 10.5279 13.8394 11.8603C12.9585 13.1927 11.6485 14.1838 10.1268 14.6691C8.60512 15.1544 6.96321 15.1047 5.47364 14.5282C3.98408 13.9518 2.73644 12.8832 1.93783 11.5C1.13923 10.1168 0.837675 8.50203 1.08324 6.9238C1.3288 5.34558 2.1067 3.89879 3.28783 2.82359C4.46895 1.74839 5.98225 1.10945 7.57655 1.01283C9.17084 0.916202 10.7502 1.36771 12.0526 2.29239C12.5029 2.61213 12.6087 3.23638 12.289 3.6867Z" fill="white"/>
</svg>
