<svg width="25" height="24" viewBox="0 0 25 24" fill="none" xmlns="http://www.w3.org/2000/svg">
<path d="M7.64442 12.3937L14.7694 3.76875L20.7507 3.75L20.7319 9.73125L12.1069 16.8563" fill="white" fill-opacity="0.5"/>
<path fill-rule="evenodd" clip-rule="evenodd" d="M21.4578 3.04289C21.6461 3.2312 21.7515 3.48683 21.7507 3.75313L21.7319 9.73439C21.731 10.0316 21.5979 10.3129 21.3688 10.5022L13.5917 16.9268L14.1712 17.5063C14.335 17.6685 14.4652 17.8615 14.5543 18.0741C14.6439 18.2882 14.69 18.5179 14.69 18.75C14.69 18.9821 14.6439 19.2118 14.5543 19.4259C14.4652 19.6385 14.3351 19.8314 14.1713 19.9936L12.9941 21.1707C12.832 21.3345 12.6391 21.4646 12.4265 21.5536C12.2125 21.6432 11.9827 21.6894 11.7507 21.6894C11.5186 21.6894 11.2888 21.6432 11.0748 21.5536C10.8622 21.4646 10.6693 21.3344 10.5071 21.1707L8.73192 19.3955L6.10153 22.0259L6.10067 22.0267C5.7726 22.354 5.32813 22.5378 4.86473 22.5378C4.40133 22.5378 3.95686 22.354 3.62879 22.0267L3.62794 22.0259L2.47481 20.8727L2.47396 20.8719C2.14668 20.5438 1.96289 20.0993 1.96289 19.6359C1.96289 19.1725 2.14668 18.7281 2.47396 18.4L5.1052 15.7687L3.33006 13.9936C3.16627 13.8314 3.03611 13.6385 2.94708 13.4259C2.85746 13.2118 2.8113 12.9821 2.8113 12.75C2.8113 12.5179 2.85746 12.2882 2.94708 12.0741C3.03612 11.8615 3.16628 11.6685 3.33008 11.5064L4.50706 10.3294C4.66922 10.1656 4.86216 10.0354 5.07479 9.94641C5.28885 9.85678 5.5186 9.81063 5.75067 9.81063C5.98273 9.81063 6.21248 9.85678 6.42655 9.94641C6.63921 10.0355 6.83216 10.1656 6.99434 10.3295L7.57388 10.909L13.9985 3.13187C14.1877 2.90275 14.4691 2.76969 14.7663 2.76875L20.7475 2.75C21.0138 2.74917 21.2695 2.85459 21.4578 3.04289ZM8.99449 12.3296L12.1711 15.5062L19.7334 9.25904L19.7475 4.75315L15.2416 4.76727L8.99449 12.3296Z" fill="white"/>
</svg>
