<svg width="32" height="32" viewBox="0 0 32 32" fill="none" xmlns="http://www.w3.org/2000/svg">
<circle cx="16" cy="16" r="12" fill="#0085FF" fill-opacity="0.3"/>
<path d="M16.0003 6.96669C16.0003 6.82437 16.0003 6.75322 16.046 6.70901C16.0916 6.6648 16.1612 6.66704 16.3003 6.67151C17.8346 6.72084 19.3348 7.148 20.667 7.91712C22.0858 8.73629 23.2641 9.91451 24.0832 11.3334C24.9024 12.7522 25.3337 14.3617 25.3337 16C25.3337 17.6384 24.9024 19.2478 24.0832 20.6667C23.2641 22.0855 22.0858 23.2638 20.667 24.0829C19.2481 24.9021 17.6387 25.3334 16.0003 25.3334C14.362 25.3334 12.7525 24.9021 11.3337 24.0829C10.0015 23.3138 8.88147 22.2282 8.07157 20.924C7.99815 20.8058 7.96144 20.7467 7.9769 20.6851C7.99236 20.6234 8.05398 20.5878 8.17723 20.5167L15.8503 16.0866C15.9235 16.0444 15.9601 16.0232 15.9802 15.9884C16.0003 15.9536 16.0003 15.9113 16.0003 15.8268V6.96669Z" fill="#0085FF"/>
</svg>
