<svg width="208" height="208" viewBox="0 0 208 208" fill="none" xmlns="http://www.w3.org/2000/svg">
<path d="M8.55371 104.008C8.55371 105.643 7.20322 107.012 5.48166 107.012C3.76009 107.012 2.4096 105.643 2.4096 104.008C2.4096 102.374 3.76009 101.004 5.48166 101.004C7.20322 101.004 8.55371 102.374 8.55371 104.008Z" fill="#1B1D20" stroke="#1B1D20" stroke-width="3.85045"/>
<path d="M18.5488 104.008C18.5488 105.643 17.1983 107.012 15.4768 107.012C13.7552 107.012 12.4047 105.643 12.4047 104.008C12.4047 102.374 13.7552 101.004 15.4768 101.004C17.1983 101.004 18.5488 102.374 18.5488 104.008Z" fill="#1B1D20" stroke="#1B1D20" stroke-width="3.85045"/>
<path d="M8.55371 84.2796C8.55371 85.914 7.20322 87.2838 5.48166 87.2838C3.76009 87.2838 2.4096 85.914 2.4096 84.2796C2.4096 82.6452 3.76009 81.2754 5.48166 81.2754C7.20322 81.2754 8.55371 82.6452 8.55371 84.2796Z" fill="#1B1D20" stroke="#1B1D20" stroke-width="3.85045"/>
<path d="M18.5488 84.2796C18.5488 85.914 17.1983 87.2838 15.4768 87.2838C13.7552 87.2838 12.4047 85.914 12.4047 84.2796C12.4047 82.6452 13.7552 81.2754 15.4768 81.2754C17.1983 81.2754 18.5488 82.6452 18.5488 84.2796Z" fill="#1B1D20" stroke="#1B1D20" stroke-width="3.85045"/>
<path d="M35.6816 84.2796C35.6816 85.914 34.3312 87.2838 32.6096 87.2838C30.888 87.2838 29.5375 85.914 29.5375 84.2796C29.5375 82.6452 30.888 81.2754 32.6096 81.2754C34.3312 81.2754 35.6816 82.6452 35.6816 84.2796Z" fill="#1B1D20" stroke="#1B1D20" stroke-width="3.85045"/>
<path d="M65.666 84.2796C65.666 85.914 64.3155 87.2838 62.594 87.2838C60.8724 87.2838 59.5219 85.914 59.5219 84.2796C59.5219 82.6452 60.8724 81.2754 62.594 81.2754C64.3155 81.2754 65.666 82.6452 65.666 84.2796Z" fill="#1B1D20" stroke="#1B1D20" stroke-width="3.85045"/>
<path d="M75.6602 84.2796C75.6602 85.914 74.3097 87.2838 72.5881 87.2838C70.8665 87.2838 69.516 85.914 69.516 84.2796C69.516 82.6452 70.8665 81.2754 72.5881 81.2754C74.3097 81.2754 75.6602 82.6452 75.6602 84.2796Z" fill="#1B1D20" stroke="#1B1D20" stroke-width="3.85045"/>
<path d="M75.6602 94.1438C75.6602 95.7782 74.3097 97.1479 72.5881 97.1479C70.8665 97.1479 69.516 95.7782 69.516 94.1438C69.516 92.5094 70.8665 91.1396 72.5881 91.1396C74.3097 91.1396 75.6602 92.5094 75.6602 94.1438Z" fill="#1B1D20" stroke="#1B1D20" stroke-width="3.85045"/>
<path d="M85.6563 143.438C85.6563 145.072 84.3058 146.442 82.5842 146.442C80.8626 146.442 79.5121 145.072 79.5121 143.438C79.5121 141.804 80.8626 140.434 82.5842 140.434C84.3058 140.434 85.6563 141.804 85.6563 143.438Z" fill="#1B1D20" stroke="#1B1D20" stroke-width="3.85045"/>
<path d="M95.6494 143.438C95.6494 145.072 94.2989 146.442 92.5774 146.442C90.8558 146.442 89.5053 145.072 89.5053 143.438C89.5053 141.804 90.8558 140.434 92.5774 140.434C94.2989 140.434 95.6494 141.804 95.6494 143.438Z" fill="#1B1D20" stroke="#1B1D20" stroke-width="3.85045"/>
<path d="M85.6563 133.574C85.6563 135.208 84.3058 136.578 82.5842 136.578C80.8626 136.578 79.5121 135.208 79.5121 133.574C79.5121 131.939 80.8626 130.57 82.5842 130.57C84.3058 130.57 85.6563 131.939 85.6563 133.574Z" fill="#1B1D20" stroke="#1B1D20" stroke-width="3.85045"/>
<path d="M95.6494 133.574C95.6494 135.208 94.2989 136.578 92.5774 136.578C90.8558 136.578 89.5053 135.208 89.5053 133.574C89.5053 131.939 90.8558 130.57 92.5774 130.57C94.2989 130.57 95.6494 131.939 95.6494 133.574Z" fill="#1B1D20" stroke="#1B1D20" stroke-width="3.85045"/>
<path d="M145.622 123.715C145.622 125.349 144.272 126.719 142.55 126.719C140.828 126.719 139.478 125.349 139.478 123.715C139.478 122.081 140.828 120.711 142.55 120.711C144.272 120.711 145.622 122.081 145.622 123.715Z" fill="#1B1D20" stroke="#1B1D20" stroke-width="3.85045"/>
<path d="M165.611 123.715C165.611 125.349 164.261 126.719 162.539 126.719C160.818 126.719 159.467 125.349 159.467 123.715C159.467 122.081 160.818 120.711 162.539 120.711C164.261 120.711 165.611 122.081 165.611 123.715Z" fill="#1B1D20" stroke="#1B1D20" stroke-width="3.85045"/>
<path d="M185.601 123.715C185.601 125.349 184.25 126.719 182.529 126.719C180.807 126.719 179.456 125.349 179.456 123.715C179.456 122.081 180.807 120.711 182.529 120.711C184.25 120.711 185.601 122.081 185.601 123.715Z" fill="#1B1D20" stroke="#1B1D20" stroke-width="3.85045"/>
<path d="M175.605 113.867C175.605 115.501 174.255 116.871 172.533 116.871C170.812 116.871 169.461 115.501 169.461 113.867C169.461 112.233 170.812 110.863 172.533 110.863C174.255 110.863 175.605 112.233 175.605 113.867Z" fill="#1B1D20" stroke="#1B1D20" stroke-width="3.85045"/>
<path d="M175.605 133.574C175.605 135.208 174.255 136.578 172.533 136.578C170.812 136.578 169.461 135.208 169.461 133.574C169.461 131.939 170.812 130.57 172.533 130.57C174.255 130.57 175.605 131.939 175.605 133.574Z" fill="#1B1D20" stroke="#1B1D20" stroke-width="3.85045"/>
<path d="M165.611 133.574C165.611 135.208 164.261 136.578 162.539 136.578C160.818 136.578 159.467 135.208 159.467 133.574C159.467 131.939 160.818 130.57 162.539 130.57C164.261 130.57 165.611 131.939 165.611 133.574Z" fill="#1B1D20" stroke="#1B1D20" stroke-width="3.85045"/>
<path d="M155.618 133.574C155.618 135.208 154.268 136.578 152.546 136.578C150.825 136.578 149.474 135.208 149.474 133.574C149.474 131.939 150.825 130.57 152.546 130.57C154.268 130.57 155.618 131.939 155.618 133.574Z" fill="#1B1D20" stroke="#1B1D20" stroke-width="3.85045"/>
<path d="M175.605 153.292C175.605 154.926 174.255 156.296 172.533 156.296C170.812 156.296 169.461 154.926 169.461 153.292C169.461 151.657 170.812 150.287 172.533 150.287C174.255 150.287 175.605 151.657 175.605 153.292Z" fill="#1B1D20" stroke="#1B1D20" stroke-width="3.85045"/>
<path d="M165.611 153.292C165.611 154.926 164.261 156.296 162.539 156.296C160.818 156.296 159.467 154.926 159.467 153.292C159.467 151.657 160.818 150.287 162.539 150.287C164.261 150.287 165.611 151.657 165.611 153.292Z" fill="#1B1D20" stroke="#1B1D20" stroke-width="3.85045"/>
<path d="M155.618 153.292C155.618 154.926 154.268 156.296 152.546 156.296C150.825 156.296 149.474 154.926 149.474 153.292C149.474 151.657 150.825 150.287 152.546 150.287C154.268 150.287 155.618 151.657 155.618 153.292Z" fill="#1B1D20" stroke="#1B1D20" stroke-width="3.85045"/>
<path d="M165.611 163.145C165.611 164.779 164.261 166.149 162.539 166.149C160.818 166.149 159.467 164.779 159.467 163.145C159.467 161.511 160.818 160.141 162.539 160.141C164.261 160.141 165.611 161.511 165.611 163.145Z" fill="#1B1D20" stroke="#1B1D20" stroke-width="3.85045"/>
<path d="M155.618 163.145C155.618 164.779 154.268 166.149 152.546 166.149C150.825 166.149 149.474 164.779 149.474 163.145C149.474 161.511 150.825 160.141 152.546 160.141C154.268 160.141 155.618 161.511 155.618 163.145Z" fill="#1B1D20" stroke="#1B1D20" stroke-width="3.85045"/>
<path d="M145.622 163.145C145.622 164.779 144.272 166.149 142.55 166.149C140.828 166.149 139.478 164.779 139.478 163.145C139.478 161.511 140.828 160.141 142.55 160.141C144.272 160.141 145.622 161.511 145.622 163.145Z" fill="#1B1D20" stroke="#1B1D20" stroke-width="3.85045"/>
<path d="M205.59 163.145C205.59 164.779 204.239 166.149 202.518 166.149C200.796 166.149 199.446 164.779 199.446 163.145C199.446 161.511 200.796 160.141 202.518 160.141C204.239 160.141 205.59 161.511 205.59 163.145Z" fill="#1B1D20" stroke="#1B1D20" stroke-width="3.85045"/>
<path d="M195.595 163.145C195.595 164.779 194.244 166.149 192.523 166.149C190.801 166.149 189.451 164.779 189.451 163.145C189.451 161.511 190.801 160.141 192.523 160.141C194.244 160.141 195.595 161.511 195.595 163.145Z" fill="#1B1D20" stroke="#1B1D20" stroke-width="3.85045"/>
<path d="M185.601 163.145C185.601 164.779 184.25 166.149 182.529 166.149C180.807 166.149 179.456 164.779 179.456 163.145C179.456 161.511 180.807 160.141 182.529 160.141C184.25 160.141 185.601 161.511 185.601 163.145Z" fill="#1B1D20" stroke="#1B1D20" stroke-width="3.85045"/>
<path d="M205.59 173.015C205.59 174.649 204.239 176.019 202.518 176.019C200.796 176.019 199.446 174.649 199.446 173.015C199.446 171.38 200.796 170.011 202.518 170.011C204.239 170.011 205.59 171.38 205.59 173.015Z" fill="#1B1D20" stroke="#1B1D20" stroke-width="3.85045"/>
<path d="M205.59 182.868C205.59 184.503 204.239 185.872 202.518 185.872C200.796 185.872 199.446 184.503 199.446 182.868C199.446 181.234 200.796 179.864 202.518 179.864C204.239 179.864 205.59 181.234 205.59 182.868Z" fill="#1B1D20" stroke="#1B1D20" stroke-width="3.85045"/>
<path d="M195.595 192.727C195.595 194.361 194.244 195.731 192.523 195.731C190.801 195.731 189.451 194.361 189.451 192.727C189.451 191.093 190.801 189.723 192.523 189.723C194.244 189.723 195.595 191.093 195.595 192.727Z" fill="#1B1D20" stroke="#1B1D20" stroke-width="3.85045"/>
<path d="M185.601 192.727C185.601 194.361 184.25 195.731 182.529 195.731C180.807 195.731 179.456 194.361 179.456 192.727C179.456 191.093 180.807 189.723 182.529 189.723C184.25 189.723 185.601 191.093 185.601 192.727Z" fill="#1B1D20" stroke="#1B1D20" stroke-width="3.85045"/>
<path d="M185.601 202.586C185.601 204.22 184.25 205.59 182.529 205.59C180.807 205.59 179.456 204.22 179.456 202.586C179.456 200.951 180.807 199.581 182.529 199.581C184.25 199.581 185.601 200.951 185.601 202.586Z" fill="#1B1D20" stroke="#1B1D20" stroke-width="3.85045"/>
<path d="M175.605 202.586C175.605 204.22 174.255 205.59 172.533 205.59C170.812 205.59 169.461 204.22 169.461 202.586C169.461 200.951 170.812 199.581 172.533 199.581C174.255 199.581 175.605 200.951 175.605 202.586Z" fill="#1B1D20" stroke="#1B1D20" stroke-width="3.85045"/>
<path d="M165.611 202.586C165.611 204.22 164.261 205.59 162.539 205.59C160.818 205.59 159.467 204.22 159.467 202.586C159.467 200.951 160.818 199.581 162.539 199.581C164.261 199.581 165.611 200.951 165.611 202.586Z" fill="#1B1D20" stroke="#1B1D20" stroke-width="3.85045"/>
<path d="M165.611 192.727C165.611 194.361 164.261 195.731 162.539 195.731C160.818 195.731 159.467 194.361 159.467 192.727C159.467 191.093 160.818 189.723 162.539 189.723C164.261 189.723 165.611 191.093 165.611 192.727Z" fill="#1B1D20" stroke="#1B1D20" stroke-width="3.85045"/>
<path d="M165.611 182.868C165.611 184.503 164.261 185.872 162.539 185.872C160.818 185.872 159.467 184.503 159.467 182.868C159.467 181.234 160.818 179.864 162.539 179.864C164.261 179.864 165.611 181.234 165.611 182.868Z" fill="#1B1D20" stroke="#1B1D20" stroke-width="3.85045"/>
<path d="M195.595 173.015C195.595 174.649 194.244 176.019 192.523 176.019C190.801 176.019 189.451 174.649 189.451 173.015C189.451 171.38 190.801 170.011 192.523 170.011C194.244 170.011 195.595 171.38 195.595 173.015Z" fill="#1B1D20" stroke="#1B1D20" stroke-width="3.85045"/>
<path d="M185.601 173.015C185.601 174.649 184.25 176.019 182.529 176.019C180.807 176.019 179.456 174.649 179.456 173.015C179.456 171.38 180.807 170.011 182.529 170.011C184.25 170.011 185.601 171.38 185.601 173.015Z" fill="#1B1D20" stroke="#1B1D20" stroke-width="3.85045"/>
<path d="M175.605 173.015C175.605 174.649 174.255 176.019 172.533 176.019C170.812 176.019 169.461 174.649 169.461 173.015C169.461 171.38 170.812 170.011 172.533 170.011C174.255 170.011 175.605 171.38 175.605 173.015Z" fill="#1B1D20" stroke="#1B1D20" stroke-width="3.85045"/>
<path d="M115.638 74.4208C115.638 76.0552 114.287 77.425 112.566 77.425C110.844 77.425 109.494 76.0552 109.494 74.4208C109.494 72.7864 110.844 71.4166 112.566 71.4166C114.287 71.4166 115.638 72.7864 115.638 74.4208Z" fill="#1B1D20" stroke="#1B1D20" stroke-width="3.85045"/>
<path d="M125.634 74.4208C125.634 76.0552 124.283 77.425 122.562 77.425C120.84 77.425 119.49 76.0552 119.49 74.4208C119.49 72.7864 120.84 71.4166 122.562 71.4166C124.283 71.4166 125.634 72.7864 125.634 74.4208Z" fill="#1B1D20" stroke="#1B1D20" stroke-width="3.85045"/>
<path d="M125.634 64.5673C125.634 66.2017 124.283 67.5714 122.562 67.5714C120.84 67.5714 119.49 66.2017 119.49 64.5673C119.49 62.9329 120.84 61.5631 122.562 61.5631C124.283 61.5631 125.634 62.9329 125.634 64.5673Z" fill="#1B1D20" stroke="#1B1D20" stroke-width="3.85045"/>
<path d="M125.634 54.7032C125.634 56.3376 124.283 57.7074 122.562 57.7074C120.84 57.7074 119.49 56.3376 119.49 54.7032C119.49 53.0688 120.84 51.6991 122.562 51.6991C124.283 51.6991 125.634 53.0688 125.634 54.7032Z" fill="#1B1D20" stroke="#1B1D20" stroke-width="3.85045"/>
<path d="M125.634 44.8497C125.634 46.4841 124.283 47.8538 122.562 47.8538C120.84 47.8538 119.49 46.4841 119.49 44.8497C119.49 43.2153 120.84 41.8455 122.562 41.8455C124.283 41.8455 125.634 43.2153 125.634 44.8497Z" fill="#1B1D20" stroke="#1B1D20" stroke-width="3.85045"/>
<path d="M115.638 54.7032C115.638 56.3376 114.287 57.7074 112.566 57.7074C110.844 57.7074 109.494 56.3376 109.494 54.7032C109.494 53.0688 110.844 51.6991 112.566 51.6991C114.287 51.6991 115.638 53.0688 115.638 54.7032Z" fill="#1B1D20" stroke="#1B1D20" stroke-width="3.85045"/>
<path d="M85.6563 54.7032C85.6563 56.3376 84.3058 57.7074 82.5842 57.7074C80.8626 57.7074 79.5121 56.3376 79.5121 54.7032C79.5121 53.0688 80.8626 51.6991 82.5842 51.6991C84.3058 51.6991 85.6563 53.0688 85.6563 54.7032Z" fill="#1B1D20" stroke="#1B1D20" stroke-width="3.85045"/>
<path d="M85.6563 64.5673C85.6563 66.2017 84.3058 67.5714 82.5842 67.5714C80.8626 67.5714 79.5121 66.2017 79.5121 64.5673C79.5121 62.9329 80.8626 61.5631 82.5842 61.5631C84.3058 61.5631 85.6563 62.9329 85.6563 64.5673Z" fill="#1B1D20" stroke="#1B1D20" stroke-width="3.85045"/>
<path d="M85.6563 44.8497C85.6563 46.4841 84.3058 47.8538 82.5842 47.8538C80.8626 47.8538 79.5121 46.4841 79.5121 44.8497C79.5121 43.2153 80.8626 41.8455 82.5842 41.8455C84.3058 41.8455 85.6563 43.2153 85.6563 44.8497Z" fill="#1B1D20" stroke="#1B1D20" stroke-width="3.85045"/>
<path d="M105.643 64.5673C105.643 66.2017 104.292 67.5714 102.571 67.5714C100.849 67.5714 99.4985 66.2017 99.4985 64.5673C99.4985 62.9329 100.849 61.5631 102.571 61.5631C104.292 61.5631 105.643 62.9329 105.643 64.5673Z" fill="#1B1D20" stroke="#1B1D20" stroke-width="3.85045"/>
<path d="M105.643 74.4208C105.643 76.0552 104.292 77.425 102.571 77.425C100.849 77.425 99.4985 76.0552 99.4985 74.4208C99.4985 72.7864 100.849 71.4166 102.571 71.4166C104.292 71.4166 105.643 72.7864 105.643 74.4208Z" fill="#1B1D20" stroke="#1B1D20" stroke-width="3.85045"/>
<path d="M95.6494 74.4208C95.6494 76.0552 94.2989 77.425 92.5774 77.425C90.8558 77.425 89.5053 76.0552 89.5053 74.4208C89.5053 72.7864 90.8558 71.4166 92.5774 71.4166C94.2989 71.4166 95.6494 72.7864 95.6494 74.4208Z" fill="#1B1D20" stroke="#1B1D20" stroke-width="3.85045"/>
<path d="M85.6563 74.4208C85.6563 76.0552 84.3058 77.425 82.5842 77.425C80.8626 77.425 79.5121 76.0552 79.5121 74.4208C79.5121 72.7864 80.8626 71.4166 82.5842 71.4166C84.3058 71.4166 85.6563 72.7864 85.6563 74.4208Z" fill="#1B1D20" stroke="#1B1D20" stroke-width="3.85045"/>
<path d="M95.6494 15.2624C95.6494 16.8968 94.2989 18.2665 92.5774 18.2665C90.8558 18.2665 89.5053 16.8968 89.5053 15.2624C89.5053 13.628 90.8558 12.2582 92.5774 12.2582C94.2989 12.2582 95.6494 13.628 95.6494 15.2624Z" fill="#1B1D20" stroke="#1B1D20" stroke-width="3.85045"/>
<path d="M95.6494 25.1318C95.6494 26.7662 94.2989 28.136 92.5774 28.136C90.8558 28.136 89.5053 26.7662 89.5053 25.1318C89.5053 23.4974 90.8558 22.1276 92.5774 22.1276C94.2989 22.1276 95.6494 23.4974 95.6494 25.1318Z" fill="#1B1D20" stroke="#1B1D20" stroke-width="3.85045"/>
<path d="M85.6563 15.2624C85.6563 16.8968 84.3058 18.2665 82.5842 18.2665C80.8626 18.2665 79.5121 16.8968 79.5121 15.2624C79.5121 13.628 80.8626 12.2582 82.5842 12.2582C84.3058 12.2582 85.6563 13.628 85.6563 15.2624Z" fill="#1B1D20" stroke="#1B1D20" stroke-width="3.85045"/>
<path d="M85.6563 25.1318C85.6563 26.7662 84.3058 28.136 82.5842 28.136C80.8626 28.136 79.5121 26.7662 79.5121 25.1318C79.5121 23.4974 80.8626 22.1276 82.5842 22.1276C84.3058 22.1276 85.6563 23.4974 85.6563 25.1318Z" fill="#1B1D20" stroke="#1B1D20" stroke-width="3.85045"/>
<path d="M95.6494 5.41424C95.6494 7.04864 94.2989 8.4184 92.5774 8.4184C90.8558 8.4184 89.5053 7.04864 89.5053 5.41424C89.5053 3.77984 90.8558 2.41009 92.5774 2.41009C94.2989 2.41009 95.6494 3.77984 95.6494 5.41424Z" fill="#1B1D20" stroke="#1B1D20" stroke-width="3.85045"/>
<path d="M95.6494 34.9909C95.6494 36.6253 94.2989 37.9951 92.5774 37.9951C90.8558 37.9951 89.5053 36.6253 89.5053 34.9909C89.5053 33.3565 90.8558 31.9868 92.5774 31.9868C94.2989 31.9868 95.6494 33.3565 95.6494 34.9909Z" fill="#1B1D20" stroke="#1B1D20" stroke-width="3.85045"/>
<path d="M114.211 15.2624C114.211 16.8968 112.86 18.2665 111.139 18.2665C109.417 18.2665 108.067 16.8968 108.067 15.2624C108.067 13.628 109.417 12.2582 111.139 12.2582C112.86 12.2582 114.211 13.628 114.211 15.2624Z" fill="#1B1D20" stroke="#1B1D20" stroke-width="3.85045"/>
<path d="M114.211 5.41424C114.211 7.04865 112.86 8.4184 111.139 8.4184C109.417 8.4184 108.067 7.04865 108.067 5.41424C108.067 3.77984 109.417 2.41009 111.139 2.41009C112.86 2.41009 114.211 3.77984 114.211 5.41424Z" fill="#1B1D20" stroke="#1B1D20" stroke-width="3.85045"/>
<path d="M114.211 34.9909C114.211 36.6253 112.86 37.9951 111.139 37.9951C109.417 37.9951 108.067 36.6253 108.067 34.9909C108.067 33.3565 109.417 31.9868 111.139 31.9868C112.86 31.9868 114.211 33.3565 114.211 34.9909Z" fill="#1B1D20" stroke="#1B1D20" stroke-width="3.85045"/>
<path d="M124.204 25.1318C124.204 26.7662 122.854 28.136 121.132 28.136C119.41 28.136 118.06 26.7662 118.06 25.1318C118.06 23.4974 119.41 22.1276 121.132 22.1276C122.854 22.1276 124.204 23.4974 124.204 25.1318Z" fill="#1B1D20" stroke="#1B1D20" stroke-width="3.85045"/>
<path d="M124.204 5.41424C124.204 7.04864 122.854 8.4184 121.132 8.4184C119.41 8.4184 118.06 7.04864 118.06 5.41424C118.06 3.77984 119.41 2.41009 121.132 2.41009C122.854 2.41009 124.204 3.77984 124.204 5.41424Z" fill="#1B1D20" stroke="#1B1D20" stroke-width="3.85045"/>
<path d="M135.628 153.292C135.628 154.926 134.277 156.296 132.556 156.296C130.834 156.296 129.484 154.926 129.484 153.292C129.484 151.657 130.834 150.287 132.556 150.287C134.277 150.287 135.628 151.657 135.628 153.292Z" fill="#1B1D20" stroke="#1B1D20" stroke-width="3.85045"/>
<path d="M125.634 153.292C125.634 154.926 124.283 156.296 122.562 156.296C120.84 156.296 119.49 154.926 119.49 153.292C119.49 151.657 120.84 150.287 122.562 150.287C124.283 150.287 125.634 151.657 125.634 153.292Z" fill="#1B1D20" stroke="#1B1D20" stroke-width="3.85045"/>
<path d="M115.638 153.292C115.638 154.926 114.287 156.296 112.566 156.296C110.844 156.296 109.494 154.926 109.494 153.292C109.494 151.657 110.844 150.287 112.566 150.287C114.287 150.287 115.638 151.657 115.638 153.292Z" fill="#1B1D20" stroke="#1B1D20" stroke-width="3.85045"/>
<path d="M125.634 202.586C125.634 204.22 124.283 205.59 122.562 205.59C120.84 205.59 119.49 204.22 119.49 202.586C119.49 200.951 120.84 199.581 122.562 199.581C124.283 199.581 125.634 200.951 125.634 202.586Z" fill="#1B1D20" stroke="#1B1D20" stroke-width="3.85045"/>
<path d="M115.638 202.586C115.638 204.22 114.287 205.59 112.566 205.59C110.844 205.59 109.494 204.22 109.494 202.586C109.494 200.951 110.844 199.581 112.566 199.581C114.287 199.581 115.638 200.951 115.638 202.586Z" fill="#1B1D20" stroke="#1B1D20" stroke-width="3.85045"/>
<path d="M144.194 192.727C144.194 194.361 142.844 195.731 141.122 195.731C139.401 195.731 138.05 194.361 138.05 192.727C138.05 191.093 139.401 189.723 141.122 189.723C142.844 189.723 144.194 191.093 144.194 192.727Z" fill="#1B1D20" stroke="#1B1D20" stroke-width="3.85045"/>
<path d="M134.2 192.727C134.2 194.361 132.85 195.731 131.128 195.731C129.407 195.731 128.056 194.361 128.056 192.727C128.056 191.093 129.407 189.723 131.128 189.723C132.85 189.723 134.2 191.093 134.2 192.727Z" fill="#1B1D20" stroke="#1B1D20" stroke-width="3.85045"/>
<path d="M105.643 153.292C105.643 154.926 104.292 156.296 102.571 156.296C100.849 156.296 99.4985 154.926 99.4985 153.292C99.4985 151.657 100.849 150.287 102.571 150.287C104.292 150.287 105.643 151.657 105.643 153.292Z" fill="#1B1D20" stroke="#1B1D20" stroke-width="3.85045"/>
<path d="M114.211 163.145C114.211 164.779 112.86 166.149 111.139 166.149C109.417 166.149 108.067 164.779 108.067 163.145C108.067 161.511 109.417 160.141 111.139 160.141C112.86 160.141 114.211 161.511 114.211 163.145Z" fill="#1B1D20" stroke="#1B1D20" stroke-width="3.85045"/>
<path d="M104.217 163.145C104.217 164.779 102.866 166.149 101.145 166.149C99.4232 166.149 98.0727 164.779 98.0727 163.145C98.0727 161.511 99.4232 160.141 101.145 160.141C102.866 160.141 104.217 161.511 104.217 163.145Z" fill="#1B1D20" stroke="#1B1D20" stroke-width="3.85045"/>
<path d="M94.2217 163.145C94.2217 164.779 92.8712 166.149 91.1496 166.149C89.4281 166.149 88.0776 164.779 88.0776 163.145C88.0776 161.511 89.4281 160.141 91.1496 160.141C92.8712 160.141 94.2217 161.511 94.2217 163.145Z" fill="#1B1D20" stroke="#1B1D20" stroke-width="3.85045"/>
<path d="M114.211 173.015C114.211 174.649 112.86 176.019 111.139 176.019C109.417 176.019 108.067 174.649 108.067 173.015C108.067 171.38 109.417 170.011 111.139 170.011C112.86 170.011 114.211 171.38 114.211 173.015Z" fill="#1B1D20" stroke="#1B1D20" stroke-width="3.85045"/>
<path d="M124.204 182.868C124.204 184.503 122.854 185.872 121.132 185.872C119.41 185.872 118.06 184.503 118.06 182.868C118.06 181.234 119.41 179.864 121.132 179.864C122.854 179.864 124.204 181.234 124.204 182.868Z" fill="#1B1D20" stroke="#1B1D20" stroke-width="3.85045"/>
<path d="M85.6563 173.015C85.6563 174.649 84.3058 176.019 82.5842 176.019C80.8626 176.019 79.5121 174.649 79.5121 173.015C79.5121 171.38 80.8626 170.011 82.5842 170.011C84.3058 170.011 85.6563 171.38 85.6563 173.015Z" fill="#1B1D20" stroke="#1B1D20" stroke-width="3.85045"/>
<path d="M105.643 182.868C105.643 184.503 104.292 185.872 102.571 185.872C100.849 185.872 99.4985 184.503 99.4985 182.868C99.4985 181.234 100.849 179.864 102.571 179.864C104.292 179.864 105.643 181.234 105.643 182.868Z" fill="#1B1D20" stroke="#1B1D20" stroke-width="3.85045"/>
<path d="M104.217 192.727C104.217 194.361 102.866 195.731 101.145 195.731C99.4232 195.731 98.0727 194.361 98.0727 192.727C98.0727 191.093 99.4232 189.723 101.145 189.723C102.866 189.723 104.217 191.093 104.217 192.727Z" fill="#1B1D20" stroke="#1B1D20" stroke-width="3.85045"/>
<path d="M94.2217 192.727C94.2217 194.361 92.8712 195.731 91.1496 195.731C89.4281 195.731 88.0776 194.361 88.0776 192.727C88.0776 191.093 89.4281 189.723 91.1496 189.723C92.8712 189.723 94.2217 191.093 94.2217 192.727Z" fill="#1B1D20" stroke="#1B1D20" stroke-width="3.85045"/>
<path d="M84.2266 192.727C84.2266 194.361 82.8761 195.731 81.1545 195.731C79.4329 195.731 78.0824 194.361 78.0824 192.727C78.0824 191.093 79.4329 189.723 81.1545 189.723C82.8761 189.723 84.2266 191.093 84.2266 192.727Z" fill="#1B1D20" stroke="#1B1D20" stroke-width="3.85045"/>
<path d="M84.2266 202.586C84.2266 204.22 82.8761 205.59 81.1545 205.59C79.4329 205.59 78.0824 204.22 78.0824 202.586C78.0824 200.951 79.4329 199.581 81.1545 199.581C82.8761 199.581 84.2266 200.951 84.2266 202.586Z" fill="#1B1D20" stroke="#1B1D20" stroke-width="3.85045"/>
<path d="M195.595 133.574C195.595 135.208 194.244 136.578 192.523 136.578C190.801 136.578 189.451 135.208 189.451 133.574C189.451 131.939 190.801 130.57 192.523 130.57C194.244 130.57 195.595 131.939 195.595 133.574Z" fill="#1B1D20" stroke="#1B1D20" stroke-width="3.85045"/>
<path d="M195.595 143.438C195.595 145.072 194.244 146.442 192.523 146.442C190.801 146.442 189.451 145.072 189.451 143.438C189.451 141.804 190.801 140.434 192.523 140.434C194.244 140.434 195.595 141.804 195.595 143.438Z" fill="#1B1D20" stroke="#1B1D20" stroke-width="3.85045"/>
<path d="M185.601 143.438C185.601 145.072 184.25 146.442 182.529 146.442C180.807 146.442 179.456 145.072 179.456 143.438C179.456 141.804 180.807 140.434 182.529 140.434C184.25 140.434 185.601 141.804 185.601 143.438Z" fill="#1B1D20" stroke="#1B1D20" stroke-width="3.85045"/>
<path d="M175.605 143.438C175.605 145.072 174.255 146.442 172.533 146.442C170.812 146.442 169.461 145.072 169.461 143.438C169.461 141.804 170.812 140.434 172.533 140.434C174.255 140.434 175.605 141.804 175.605 143.438Z" fill="#1B1D20" stroke="#1B1D20" stroke-width="3.85045"/>
<path d="M155.618 143.438C155.618 145.072 154.268 146.442 152.546 146.442C150.825 146.442 149.474 145.072 149.474 143.438C149.474 141.804 150.825 140.434 152.546 140.434C154.268 140.434 155.618 141.804 155.618 143.438Z" fill="#1B1D20" stroke="#1B1D20" stroke-width="3.85045"/>
<path d="M135.628 143.438C135.628 145.072 134.277 146.442 132.556 146.442C130.834 146.442 129.484 145.072 129.484 143.438C129.484 141.804 130.834 140.434 132.556 140.434C134.277 140.434 135.628 141.804 135.628 143.438Z" fill="#1B1D20" stroke="#1B1D20" stroke-width="3.85045"/>
<path d="M115.638 133.574C115.638 135.208 114.287 136.578 112.566 136.578C110.844 136.578 109.494 135.208 109.494 133.574C109.494 131.939 110.844 130.57 112.566 130.57C114.287 130.57 115.638 131.939 115.638 133.574Z" fill="#1B1D20" stroke="#1B1D20" stroke-width="3.85045"/>
<path d="M115.638 113.867C115.638 115.501 114.287 116.871 112.566 116.871C110.844 116.871 109.494 115.501 109.494 113.867C109.494 112.233 110.844 110.863 112.566 110.863C114.287 110.863 115.638 112.233 115.638 113.867Z" fill="#1B1D20" stroke="#1B1D20" stroke-width="3.85045"/>
<path d="M125.634 104.008C125.634 105.643 124.283 107.012 122.562 107.012C120.84 107.012 119.49 105.643 119.49 104.008C119.49 102.374 120.84 101.004 122.562 101.004C124.283 101.004 125.634 102.374 125.634 104.008Z" fill="#1B1D20" stroke="#1B1D20" stroke-width="3.85045"/>
<path d="M145.622 94.1438C145.622 95.7782 144.272 97.1479 142.55 97.1479C140.828 97.1479 139.478 95.7782 139.478 94.1438C139.478 92.5094 140.828 91.1396 142.55 91.1396C144.272 91.1396 145.622 92.5094 145.622 94.1438Z" fill="#1B1D20" stroke="#1B1D20" stroke-width="3.85045"/>
<path d="M155.618 94.1438C155.618 95.7782 154.268 97.1479 152.546 97.1479C150.825 97.1479 149.474 95.7782 149.474 94.1438C149.474 92.5094 150.825 91.1396 152.546 91.1396C154.268 91.1396 155.618 92.5094 155.618 94.1438Z" fill="#1B1D20" stroke="#1B1D20" stroke-width="3.85045"/>
<path d="M175.605 94.1438C175.605 95.7782 174.255 97.1479 172.533 97.1479C170.812 97.1479 169.461 95.7782 169.461 94.1438C169.461 92.5094 170.812 91.1396 172.533 91.1396C174.255 91.1396 175.605 92.5094 175.605 94.1438Z" fill="#1B1D20" stroke="#1B1D20" stroke-width="3.85045"/>
<path d="M195.595 94.1438C195.595 95.7782 194.244 97.1479 192.523 97.1479C190.801 97.1479 189.451 95.7782 189.451 94.1438C189.451 92.5094 190.801 91.1396 192.523 91.1396C194.244 91.1396 195.595 92.5094 195.595 94.1438Z" fill="#1B1D20" stroke="#1B1D20" stroke-width="3.85045"/>
<path d="M205.59 104.008C205.59 105.643 204.239 107.012 202.518 107.012C200.796 107.012 199.446 105.643 199.446 104.008C199.446 102.374 200.796 101.004 202.518 101.004C204.239 101.004 205.59 102.374 205.59 104.008Z" fill="#1B1D20" stroke="#1B1D20" stroke-width="3.85045"/>
<path d="M205.59 113.867C205.59 115.501 204.239 116.871 202.518 116.871C200.796 116.871 199.446 115.501 199.446 113.867C199.446 112.233 200.796 110.863 202.518 110.863C204.239 110.863 205.59 112.233 205.59 113.867Z" fill="#1B1D20" stroke="#1B1D20" stroke-width="3.85045"/>
<path d="M145.622 84.2796C145.622 85.914 144.272 87.2838 142.55 87.2838C140.828 87.2838 139.478 85.914 139.478 84.2796C139.478 82.6452 140.828 81.2754 142.55 81.2754C144.272 81.2754 145.622 82.6452 145.622 84.2796Z" fill="#1B1D20" stroke="#1B1D20" stroke-width="3.85045"/>
<path d="M155.618 84.2796C155.618 85.914 154.268 87.2838 152.546 87.2838C150.825 87.2838 149.474 85.914 149.474 84.2796C149.474 82.6452 150.825 81.2754 152.546 81.2754C154.268 81.2754 155.618 82.6452 155.618 84.2796Z" fill="#1B1D20" stroke="#1B1D20" stroke-width="3.85045"/>
<path d="M165.611 84.2796C165.611 85.914 164.261 87.2838 162.539 87.2838C160.818 87.2838 159.467 85.914 159.467 84.2796C159.467 82.6452 160.818 81.2754 162.539 81.2754C164.261 81.2754 165.611 82.6452 165.611 84.2796Z" fill="#1B1D20" stroke="#1B1D20" stroke-width="3.85045"/>
<path d="M185.601 84.2796C185.601 85.914 184.25 87.2838 182.529 87.2838C180.807 87.2838 179.456 85.914 179.456 84.2796C179.456 82.6452 180.807 81.2754 182.529 81.2754C184.25 81.2754 185.601 82.6452 185.601 84.2796Z" fill="#1B1D20" stroke="#1B1D20" stroke-width="3.85045"/>
<path d="M195.595 84.2796C195.595 85.914 194.244 87.2838 192.523 87.2838C190.801 87.2838 189.451 85.914 189.451 84.2796C189.451 82.6452 190.801 81.2754 192.523 81.2754C194.244 81.2754 195.595 82.6452 195.595 84.2796Z" fill="#1B1D20" stroke="#1B1D20" stroke-width="3.85045"/>
<path d="M45.6758 94.1438C45.6758 95.7782 44.3253 97.1479 42.6037 97.1479C40.8822 97.1479 39.5317 95.7782 39.5317 94.1438C39.5317 92.5094 40.8822 91.1396 42.6037 91.1396C44.3253 91.1396 45.6758 92.5094 45.6758 94.1438Z" fill="#1B1D20" stroke="#1B1D20" stroke-width="3.85045"/>
<path d="M55.6719 94.1438C55.6719 95.7782 54.3214 97.1479 52.5998 97.1479C50.8783 97.1479 49.5278 95.7782 49.5278 94.1438C49.5278 92.5094 50.8783 91.1396 52.5998 91.1396C54.3214 91.1396 55.6719 92.5094 55.6719 94.1438Z" fill="#1B1D20" stroke="#1B1D20" stroke-width="3.85045"/>
<path d="M55.6719 104.008C55.6719 105.643 54.3214 107.012 52.5998 107.012C50.8783 107.012 49.5278 105.643 49.5278 104.008C49.5278 102.374 50.8783 101.004 52.5998 101.004C54.3214 101.004 55.6719 102.374 55.6719 104.008Z" fill="#1B1D20" stroke="#1B1D20" stroke-width="3.85045"/>
<path d="M65.666 104.008C65.666 105.643 64.3155 107.012 62.594 107.012C60.8724 107.012 59.5219 105.643 59.5219 104.008C59.5219 102.374 60.8724 101.004 62.594 101.004C64.3155 101.004 65.666 102.374 65.666 104.008Z" fill="#1B1D20" stroke="#1B1D20" stroke-width="3.85045"/>
<path d="M95.6494 104.008C95.6494 105.643 94.2989 107.012 92.5774 107.012C90.8558 107.012 89.5053 105.643 89.5053 104.008C89.5053 102.374 90.8558 101.004 92.5774 101.004C94.2989 101.004 95.6494 102.374 95.6494 104.008Z" fill="#1B1D20" stroke="#1B1D20" stroke-width="3.85045"/>
<path d="M75.6602 113.867C75.6602 115.501 74.3097 116.871 72.5881 116.871C70.8665 116.871 69.516 115.501 69.516 113.867C69.516 112.233 70.8665 110.863 72.5881 110.863C74.3097 110.863 75.6602 112.233 75.6602 113.867Z" fill="#1B1D20" stroke="#1B1D20" stroke-width="3.85045"/>
<path d="M65.666 123.715C65.666 125.349 64.3155 126.719 62.594 126.719C60.8724 126.719 59.5219 125.349 59.5219 123.715C59.5219 122.081 60.8724 120.711 62.594 120.711C64.3155 120.711 65.666 122.081 65.666 123.715Z" fill="#1B1D20" stroke="#1B1D20" stroke-width="3.85045"/>
<path d="M28.543 104.008C28.543 105.643 27.1925 107.012 25.4709 107.012C23.7493 107.012 22.3989 105.643 22.3989 104.008C22.3989 102.374 23.7493 101.004 25.4709 101.004C27.1925 101.004 28.543 102.374 28.543 104.008Z" fill="#1B1D20" stroke="#1B1D20" stroke-width="3.85045"/>
<path d="M28.543 113.867C28.543 115.501 27.1925 116.871 25.4709 116.871C23.7493 116.871 22.3989 115.501 22.3989 113.867C22.3989 112.233 23.7493 110.863 25.4709 110.863C27.1925 110.863 28.543 112.233 28.543 113.867Z" fill="#1B1D20" stroke="#1B1D20" stroke-width="3.85045"/>
<path d="M28.543 123.715C28.543 125.349 27.1925 126.719 25.4709 126.719C23.7493 126.719 22.3989 125.349 22.3989 123.715C22.3989 122.081 23.7493 120.711 25.4709 120.711C27.1925 120.711 28.543 122.081 28.543 123.715Z" fill="#1B1D20" stroke="#1B1D20" stroke-width="3.85045"/>
<path d="M38.5371 123.715C38.5371 125.349 37.1866 126.719 35.4651 126.719C33.7435 126.719 32.393 125.349 32.393 123.715C32.393 122.081 33.7435 120.711 35.4651 120.711C37.1866 120.711 38.5371 122.081 38.5371 123.715Z" fill="#1B1D20" stroke="#1B1D20" stroke-width="3.85045"/>
<path d="M38.5371 113.867C38.5371 115.501 37.1866 116.871 35.4651 116.871C33.7435 116.871 32.393 115.501 32.393 113.867C32.393 112.233 33.7435 110.863 35.4651 110.863C37.1866 110.863 38.5371 112.233 38.5371 113.867Z" fill="#1B1D20" stroke="#1B1D20" stroke-width="3.85045"/>
<path d="M8.55371 113.867C8.55371 115.501 7.20322 116.871 5.48166 116.871C3.76009 116.871 2.4096 115.501 2.4096 113.867C2.4096 112.233 3.76009 110.863 5.48166 110.863C7.20322 110.863 8.55371 112.233 8.55371 113.867Z" fill="#1B1D20" stroke="#1B1D20" stroke-width="3.85045"/>
<rect x="23.8266" y="162.955" width="21.8498" height="21.5007" rx="5.77567" fill="#1B1D20" stroke="#1B1D20" stroke-width="3.85045"/>
<rect x="23.8266" y="23.5376" width="21.8498" height="21.5006" rx="5.77567" fill="#1B1D20" stroke="#1B1D20" stroke-width="3.85045"/>
<rect x="162.323" y="23.5376" width="21.8498" height="21.5006" rx="5.77567" fill="#1B1D20" stroke="#1B1D20" stroke-width="3.85045"/>
<path fill-rule="evenodd" clip-rule="evenodd" d="M17.9578 142.377H51.5489C59.7618 142.377 66.4198 149.035 66.4198 157.248V190.179C66.4198 198.392 59.7618 205.05 51.5489 205.05H17.9578C9.74485 205.05 3.08691 198.392 3.08691 190.179L3.08691 157.248C3.08691 149.035 9.74485 142.377 17.9578 142.377ZM17.9578 149.771C13.8284 149.771 10.4808 153.118 10.4808 157.248L10.4808 190.179C10.4808 194.309 13.8284 197.656 17.9578 197.656H51.5489C55.6783 197.656 59.0258 194.309 59.0258 190.179L59.0258 157.248C59.0258 153.118 55.6783 149.771 51.5489 149.771H17.9578Z" fill="#1B1D20"/>
<path fill-rule="evenodd" clip-rule="evenodd" d="M17.9578 2.93884L51.5489 2.93884C59.7618 2.93884 66.4198 9.59678 66.4198 17.8098V50.7412C66.4198 58.9542 59.7618 65.6121 51.5489 65.6121H17.9578C9.74485 65.6121 3.08691 58.9542 3.08691 50.7412L3.08691 17.8098C3.08691 9.59678 9.74485 2.93884 17.9578 2.93884ZM17.9578 10.3328C13.8284 10.3328 10.4808 13.6803 10.4808 17.8098L10.4808 50.7412C10.4808 54.8706 13.8284 58.2182 17.9578 58.2182L51.5489 58.2182C55.6783 58.2182 59.0258 54.8706 59.0258 50.7412L59.0258 17.8098C59.0258 13.6803 55.6783 10.3328 51.5489 10.3328L17.9578 10.3328Z" fill="#1B1D20"/>
<path fill-rule="evenodd" clip-rule="evenodd" d="M156.455 2.93787L190.046 2.93787C198.259 2.93787 204.917 9.59581 204.917 17.8088V50.7402C204.917 58.9532 198.259 65.6111 190.046 65.6111H156.455C148.242 65.6111 141.584 58.9532 141.584 50.7402V17.8088C141.584 9.5958 148.242 2.93787 156.455 2.93787ZM156.455 10.3318C152.325 10.3318 148.978 13.6794 148.978 17.8088V50.7402C148.978 54.8696 152.325 58.2172 156.455 58.2172L190.046 58.2172C194.175 58.2172 197.523 54.8696 197.523 50.7402V17.8088C197.523 13.6794 194.175 10.3318 190.046 10.3318L156.455 10.3318Z" fill="#1B1D20"/>
</svg>
