<svg width="56" height="56" viewBox="0 0 56 56" fill="none" xmlns="http://www.w3.org/2000/svg">
<g clip-path="url(#clip0_2001_531)">
<g filter="url(#filter0_b_2001_531)">
<path d="M0 8C0 3.58172 3.58172 0 8 0H56V56H0V8Z" fill="white" fill-opacity="0.5"/>
<path d="M0.25 8C0.25 3.71979 3.71979 0.25 8 0.25H55.75V55.75H0.25V8Z" stroke="white" stroke-opacity="0.3" stroke-width="0.5"/>
</g>
<path d="M10.443 18.9208L10.4322 18.1474C10.4106 17.6392 10.4647 17.1853 10.5945 16.786C10.7316 16.3793 10.9517 16.0127 11.2547 15.6859C11.565 15.3592 11.969 15.0469 12.4668 14.7492C12.9142 14.4733 13.2677 14.2155 13.5274 13.9759C13.7872 13.7363 13.9712 13.4821 14.0794 13.2135C14.1948 12.9448 14.2526 12.6326 14.2526 12.2768V12.255C14.2526 11.8702 14.1552 11.5289 13.9603 11.2312C13.7728 10.9335 13.5094 10.7011 13.1703 10.5341C12.8312 10.3598 12.4344 10.2727 11.9798 10.2727C11.5181 10.2727 11.114 10.3635 10.7677 10.545C10.4286 10.7265 10.158 10.977 9.95602 11.2965C9.76121 11.6088 9.64577 11.9754 9.6097 12.3966L9.59887 12.4837H7.06641V12.3857C7.1097 11.5652 7.32615 10.8282 7.71576 10.1747C8.10537 9.52117 8.66814 9.00563 9.40407 8.62804C10.1472 8.2432 11.0527 8.05078 12.1205 8.05078C13.109 8.05078 13.9712 8.22868 14.7071 8.58448C15.4502 8.93301 16.0274 9.41588 16.4387 10.0331C16.8572 10.6503 17.0664 11.3582 17.0664 12.157V12.1788C17.0664 12.7306 16.9762 13.2316 16.7958 13.6818C16.6227 14.132 16.3629 14.5386 16.0166 14.9017C15.6775 15.2575 15.2627 15.5843 14.772 15.882C14.3031 16.1579 13.9351 16.4157 13.6681 16.6553C13.4084 16.8949 13.2244 17.149 13.1162 17.4177C13.008 17.6791 12.9539 17.9913 12.9539 18.3544V18.9208H10.443ZM11.7417 24.0508C11.2872 24.0508 10.9048 23.9019 10.5945 23.6042C10.2915 23.2992 10.14 22.9253 10.14 22.4824C10.14 22.0322 10.2915 21.6582 10.5945 21.3605C10.9048 21.0628 11.2872 20.914 11.7417 20.914C12.2035 20.914 12.5895 21.0628 12.8997 21.3605C13.21 21.6582 13.3651 22.0322 13.3651 22.4824C13.3651 22.9253 13.21 23.2992 12.8997 23.6042C12.5895 23.9019 12.2035 24.0508 11.7417 24.0508Z" fill="white" fill-opacity="0.5"/>
</g>
<defs>
<filter id="filter0_b_2001_531" x="-12" y="-12" width="80" height="80" filterUnits="userSpaceOnUse" color-interpolation-filters="sRGB">
<feFlood flood-opacity="0" result="BackgroundImageFix"/>
<feGaussianBlur in="BackgroundImageFix" stdDeviation="6"/>
<feComposite in2="SourceAlpha" operator="in" result="effect1_backgroundBlur_2001_531"/>
<feBlend mode="normal" in="SourceGraphic" in2="effect1_backgroundBlur_2001_531" result="shape"/>
</filter>
<clipPath id="clip0_2001_531">
<rect width="56" height="56" rx="8" fill="white"/>
</clipPath>
</defs>
</svg>
